<svg xmlns="http://www.w3.org/2000/svg" xmlns:xlink="http://www.w3.org/1999/xlink" viewBox="0 0 717.8 245.15"><defs><style>.cls-1,.cls-10,.cls-11,.cls-2,.cls-4,.cls-6,.cls-7,.cls-8,.cls-9{fill:none;}.cls-10,.cls-11,.cls-12,.cls-2,.cls-4,.cls-6,.cls-7,.cls-8,.cls-9{stroke:#231f20;}.cls-10,.cls-11,.cls-12,.cls-2,.cls-4,.cls-5,.cls-6,.cls-7,.cls-8,.cls-9{stroke-miterlimit:10;}.cls-2{stroke-width:2px;}.cls-12,.cls-13,.cls-3{fill:#231f20;}.cls-5{fill:#ed1c24;stroke:#ed1c24;}.cls-10,.cls-11,.cls-6,.cls-7,.cls-8{stroke-width:3px;}.cls-7{stroke-dasharray:4.13 4.13;}.cls-8{stroke-dasharray:3.18 3.18;}.cls-9{stroke-width:4px;}.cls-10{stroke-dasharray:5.47 5.47;}.cls-11{stroke-dasharray:5;}.cls-13{font-size:12px;font-family:MyriadPro-Regular, Myriad Pro;}.cls-14{letter-spacing:0em;}.cls-15{letter-spacing:-0.01em;}.cls-16{letter-spacing:-0.01em;}.cls-17{letter-spacing:-0.01em;}.cls-18{letter-spacing:0em;}.cls-19{letter-spacing:0em;}.cls-20{letter-spacing:0em;}.cls-21{letter-spacing:-0.01em;}.cls-22{letter-spacing:0.01em;}.cls-23{letter-spacing:0.01em;}.cls-24{letter-spacing:0.01em;}.cls-25{letter-spacing:0em;}.cls-26{letter-spacing:-0.02em;}.cls-27{letter-spacing:0em;}.cls-28{letter-spacing:0em;}.cls-29{clip-path:url(#clip-path);}.cls-30{clip-path:url(#clip-path-2);}</style><clipPath id="clip-path"><rect class="cls-1" x="404.69" y="215.85" width="75.33" height="29.3"/></clipPath><clipPath id="clip-path-2"><rect class="cls-1" x="568.31" y="221.13" width="119.49" height="20.2"/></clipPath></defs><title>hcp</title><g id="Layer_2" data-name="Layer 2"><g id="Layer_1-2" data-name="Layer 1"><path class="cls-2" d="M253.42,9.74C270.24,3.79,326.05,63.88,315,122.56c-6.7,35.45-37.28,67.59-52.56,62.82-13.52-4.21-14.15-37-15.39-101.28C246.09,36.37,245.64,12.5,253.42,9.74Z"/><ellipse class="cls-2" cx="246.81" cy="100.5" rx="76.18" ry="99.35"/><path class="cls-3" d="M227.12,186.85c-3.49,0-7.53-1.33-11.87-3.94-14.81-8.89-33.31-33-38.44-60.16-4.56-24.1,2.4-46.53,9-61.1,7.62-16.75,19.41-32.94,31.52-43.33C226.5,10.49,234.63,7,239.66,8.8c8.47,3,8,25.66,7.08,75.31-1.25,65.12-1.88,97.8-16.09,102.23A11.91,11.91,0,0,1,227.12,186.85Zm9.64-176.52c-4.43,0-11,3.39-18.09,9.51-11.9,10.2-23.49,26.14-31,42.64-6.52,14.3-13.35,36.31-8.9,59.9,5,26.59,23.08,50.15,37.51,58.82,5.4,3.24,10.16,4.36,13.78,3.23,12.83-4,13.49-38.22,14.68-100.35,0-1.9.25-11.94.48-32,.29-24.82.26-39-6.22-41.35A5.58,5.58,0,0,0,236.76,10.33Z"/><rect class="cls-4" x="170.63" y="1.15" width="152.36" height="199.71" rx="76.18" ry="76.18"/><line class="cls-4" x1="170.63" y1="167.57" x2="322.99" y2="167.57"/><line class="cls-4" x1="170.63" y1="134.29" x2="322.99" y2="134.29"/><line class="cls-4" x1="170.63" y1="101" x2="322.99" y2="101"/><line class="cls-4" x1="170.63" y1="67.72" x2="322.99" y2="67.72"/><line class="cls-4" x1="170.63" y1="34.43" x2="322.99" y2="34.43"/><line class="cls-4" x1="297.6" y1="1.15" x2="297.6" y2="200.86"/><line class="cls-4" x1="272.21" y1="1.15" x2="272.21" y2="200.86"/><line class="cls-4" x1="246.81" y1="1.15" x2="246.81" y2="200.86"/><line class="cls-4" x1="221.42" y1="1.15" x2="221.42" y2="200.86"/><line class="cls-4" x1="196.03" y1="1.15" x2="196.03" y2="200.86"/><circle class="cls-5" cx="211.29" cy="52.52" r="3.38"/><circle class="cls-5" cx="232.6" cy="52.99" r="3.38"/><circle class="cls-5" cx="231.9" cy="86.37" r="3.38"/><circle class="cls-5" cx="231.19" cy="117.32" r="3.38"/><circle class="cls-5" cx="188.3" cy="118.32" r="3.38"/><circle class="cls-5" cx="207.91" cy="152.69" r="3.38"/><circle class="cls-5" cx="207.91" cy="117.79" r="3.38"/><circle class="cls-5" cx="207.91" cy="86.37" r="3.38"/><circle class="cls-5" cx="283.46" cy="149.31" r="3.38"/><circle class="cls-5" cx="283.46" cy="118.79" r="3.38"/><circle class="cls-5" cx="257.58" cy="118.32" r="3.38"/><circle class="cls-5" cx="283.46" cy="52.99" r="3.38"/><circle class="cls-5" cx="283.46" cy="86.37" r="3.38"/><circle class="cls-5" cx="257.58" cy="150.27" r="3.38"/><circle class="cls-5" cx="257.96" cy="52.99" r="3.38"/><circle class="cls-5" cx="257.96" cy="86.37" r="3.38"/><circle class="cls-5" cx="231.9" cy="151.27" r="3.38"/><circle class="cls-5" cx="304.46" cy="118.79" r="3.38"/><path class="cls-2" d="M83.79,9.74c16.82-5.95,72.63,54.14,61.54,112.82C138.63,158,108,190.15,92.76,185.38c-13.52-4.21-14.15-37-15.38-101.28C76.46,36.37,76,12.5,83.79,9.74Z"/><ellipse class="cls-2" cx="77.18" cy="100.5" rx="76.18" ry="99.35"/><path class="cls-3" d="M57.49,186.85c-3.49,0-7.53-1.33-11.88-3.94-14.8-8.89-33.3-33-38.43-60.16-4.56-24.1,2.4-46.53,9-61.1C23.84,44.9,35.63,28.71,47.74,18.32,56.87,10.49,65,7,70,8.8c8.47,3,8,25.66,7.08,75.31-1.25,65.12-1.88,97.8-16.09,102.23A11.91,11.91,0,0,1,57.49,186.85ZM67.13,10.33c-4.44,0-11,3.39-18.09,9.51C37.14,30,25.55,46,18,62.48c-6.51,14.3-13.35,36.31-8.89,59.9,5,26.59,23.07,50.15,37.5,58.82,5.4,3.24,10.17,4.36,13.78,3.23,12.84-4,13.49-38.22,14.69-100.35,0-1.9.24-11.94.48-32,.29-24.82.26-39-6.23-41.35A5.49,5.49,0,0,0,67.13,10.33Z"/><rect class="cls-4" x="1" y="1.15" width="152.36" height="199.71" rx="76.18" ry="76.18"/><line class="cls-4" x1="1" y1="167.57" x2="153.36" y2="167.57"/><line class="cls-4" x1="1" y1="134.29" x2="153.36" y2="134.29"/><line class="cls-4" x1="1" y1="101" x2="153.36" y2="101"/><line class="cls-4" x1="1" y1="67.72" x2="153.36" y2="67.72"/><line class="cls-4" x1="1" y1="34.43" x2="153.36" y2="34.43"/><line class="cls-4" x1="127.97" y1="1.15" x2="127.97" y2="200.86"/><line class="cls-4" x1="102.58" y1="1.15" x2="102.58" y2="200.86"/><line class="cls-4" x1="77.18" y1="1.15" x2="77.18" y2="200.86"/><line class="cls-4" x1="51.79" y1="1.15" x2="51.79" y2="200.86"/><line class="cls-4" x1="26.39" y1="1.15" x2="26.39" y2="200.86"/><circle class="cls-5" cx="41.66" cy="52.52" r="3.38"/><circle class="cls-5" cx="60.96" cy="52.99" r="3.38"/><circle class="cls-5" cx="62.27" cy="86.37" r="3.38"/><circle class="cls-5" cx="61.56" cy="118.32" r="3.38"/><circle class="cls-5" cx="18.66" cy="118.32" r="3.38"/><circle class="cls-5" cx="38.28" cy="152.69" r="3.38"/><circle class="cls-5" cx="38.28" cy="116.79" r="3.38"/><circle class="cls-5" cx="38.28" cy="86.37" r="3.38"/><circle class="cls-5" cx="113.83" cy="149.31" r="3.38"/><circle class="cls-5" cx="113.83" cy="118.79" r="3.38"/><circle class="cls-5" cx="87.95" cy="118.32" r="3.38"/><circle class="cls-5" cx="113.83" cy="52.99" r="3.38"/><circle class="cls-5" cx="113.83" cy="86.37" r="3.38"/><circle class="cls-5" cx="87.95" cy="150.27" r="3.38"/><circle class="cls-5" cx="88.33" cy="52.99" r="3.38"/><circle class="cls-5" cx="88.33" cy="86.37" r="3.38"/><circle class="cls-5" cx="62.27" cy="151.27" r="3.38"/><circle class="cls-5" cx="134.83" cy="118.79" r="3.38"/><line class="cls-6" x1="228.52" y1="86.37" x2="211.29" y2="86.37"/><line class="cls-6" x1="257.58" y1="121.7" x2="257.58" y2="146.89"/><line class="cls-6" x1="283.46" y1="89.75" x2="283.46" y2="92.25"/><line class="cls-7" x1="283.46" y1="96.38" x2="283.46" y2="110.84"/><line class="cls-6" x1="283.46" y1="112.91" x2="283.46" y2="115.41"/><line class="cls-6" x1="227.81" y1="117.32" x2="211.29" y2="117.79"/><line class="cls-6" x1="229.21" y1="52.99" x2="226.72" y2="52.91"/><line class="cls-8" x1="223.53" y1="52.8" x2="218.76" y2="52.65"/><line class="cls-6" x1="217.17" y1="52.6" x2="214.67" y2="52.52"/><line class="cls-9" x1="280.08" y1="52.99" x2="261.34" y2="52.99"/><line class="cls-6" x1="304.46" y1="122.17" x2="303.1" y2="124.27"/><line class="cls-10" x1="300.12" y1="128.86" x2="289.69" y2="144.91"/><line class="cls-6" x1="288.2" y1="147.21" x2="286.84" y2="149.31"/><line class="cls-11" x1="231.9" y1="154.65" x2="211.29" y2="117.79"/><line class="cls-6" x1="188.3" y1="114.94" x2="204.53" y2="86.37"/><line class="cls-11" x1="257.96" y1="56.37" x2="257.96" y2="82.99"/><line class="cls-6" x1="214.67" y1="52.52" x2="228.52" y2="86.37"/><line class="cls-6" x1="283.46" y1="56.37" x2="283.46" y2="82.99"/><line class="cls-4" x1="553.35" y1="10.1" x2="554.63" y2="188.61"/><line class="cls-4" x1="530.27" y1="168.61" x2="717.45" y2="168.61"/><circle class="cls-12" cx="580.88" cy="79.36" r="3.38"/><circle class="cls-12" cx="610.07" cy="100.55" r="3.38"/><circle class="cls-12" cx="674.75" cy="61.37" r="3.38"/><circle class="cls-12" cx="663.04" cy="49.48" r="3.38"/><circle class="cls-12" cx="642.05" cy="64.75" r="3.38"/><circle class="cls-12" cx="590.76" cy="127.69" r="3.38"/><circle class="cls-12" cx="567.16" cy="135.41" r="3.38"/><circle class="cls-12" cx="633.48" cy="92.16" r="3.38"/><circle class="cls-12" cx="613.45" cy="79.36" r="3.38"/><circle class="cls-12" cx="594.14" cy="103.93" r="3.38"/><circle class="cls-12" cx="623.86" cy="116.05" r="3.38"/><circle class="cls-12" cx="642.05" cy="34.28" r="3.38"/><circle class="cls-12" cx="702.65" cy="30.9" r="3.38"/><circle class="cls-12" cx="654.18" cy="79.36" r="3.38"/><circle class="cls-12" cx="688.93" cy="16.2" r="3.38"/><circle class="cls-12" cx="584.26" cy="149.33" r="3.38"/><circle class="cls-12" cx="669.8" cy="34.51" r="3.38"/><circle class="cls-12" cx="688.93" cy="38.13" r="3.38"/><line class="cls-5" x1="717.45" y1="0.36" x2="550.04" y2="160.49"/><line class="cls-12" x1="553.5" y1="48.9" x2="540.53" y2="49.13"/><line class="cls-12" x1="554.41" y1="145.83" x2="541.44" y2="146.07"/><line class="cls-12" x1="552.86" y1="122.19" x2="539.89" y2="122.42"/><line class="cls-12" x1="553.37" y1="96.66" x2="540.4" y2="96.9"/><line class="cls-12" x1="552.7" y1="72.25" x2="539.73" y2="72.49"/><line class="cls-4" x1="570.54" y1="168.61" x2="570.54" y2="181.62"/><line class="cls-4" x1="669.8" y1="168.61" x2="669.8" y2="181.62"/><line class="cls-4" x1="645.43" y1="168.61" x2="645.43" y2="181.62"/><line class="cls-4" x1="620.48" y1="168.61" x2="620.48" y2="181.62"/><line class="cls-4" x1="596.52" y1="168.61" x2="596.52" y2="181.62"/><text class="cls-13" transform="translate(520.72 112.67) rotate(-88.8)"><tspan class="cls-14">B</tspan><tspan x="6.55" y="0">eh</tspan><tspan class="cls-15" x="19.22" y="0">a</tspan><tspan x="24.91" y="0">vior</tspan></text><text class="cls-13" transform="translate(604.63 201.64)">HCP s<tspan class="cls-16" x="28.46" y="0">c</tspan><tspan x="33.77" y="0">o</tspan><tspan class="cls-17" x="40.36" y="0">r</tspan><tspan class="cls-18" x="44.16" y="0">e</tspan></text><text class="cls-13" transform="translate(26.39 237.83)">B<tspan class="cls-19" x="6.5" y="0">r</tspan><tspan class="cls-20" x="10.37" y="0">ain </tspan><tspan class="cls-21" x="28.16" y="0">C</tspan><tspan x="34.99" y="0">onne</tspan><tspan class="cls-22" x="60.91" y="0">c</tspan><tspan x="66.44" y="0">tivi</tspan><tspan class="cls-23" x="81.8" y="0">t</tspan><tspan x="85.88" y="0">y Ne</tspan><tspan class="cls-24" x="107.99" y="0">t</tspan><tspan class="cls-17" x="112.07" y="0">w</tspan><tspan x="120.78" y="0">o</tspan><tspan class="cls-25" x="127.37" y="0">r</tspan><tspan x="131.34" y="0">k</tspan></text><text class="cls-13" transform="translate(196.03 237.83)"><tspan class="cls-26">P</tspan><tspan x="6.08" y="0">ositi</tspan><tspan class="cls-17" x="27.01" y="0">v</tspan><tspan class="cls-27" x="32.66" y="0">e and Neg</tspan><tspan class="cls-28" x="83.59" y="0">a</tspan><tspan class="cls-27" x="89.33" y="0">ti</tspan><tspan class="cls-17" x="96.11" y="0">v</tspan><tspan class="cls-27" x="101.76" y="0">e edges</tspan></text><path class="cls-2" d="M425.07,10.42c16.82-5.95,72.63,54.14,61.53,112.82-6.7,35.45-37.28,67.59-52.56,62.82-13.52-4.21-14.15-37-15.38-101.28C417.74,37,417.28,13.18,425.07,10.42Z"/><ellipse class="cls-2" cx="418.46" cy="101.18" rx="76.18" ry="99.35"/><path class="cls-3" d="M398.77,187.53c-3.5,0-7.53-1.33-11.88-3.94-14.8-8.89-33.3-33-38.44-60.16-4.55-24.1,2.4-46.53,9-61.1C365.12,45.58,376.9,29.39,389,19c9.13-7.83,17.25-11.3,22.29-9.52,8.46,3,8,25.66,7.07,75.31-1.25,65.12-1.88,97.8-16.08,102.23A12,12,0,0,1,398.77,187.53ZM408.4,11c-4.43,0-10.95,3.39-18.08,9.51-11.91,10.2-23.5,26.14-31,42.64-6.52,14.3-13.35,36.31-8.89,59.9,5,26.59,23.07,50.15,37.5,58.82,5.4,3.24,10.16,4.36,13.78,3.23,12.83-4,13.49-38.22,14.68-100.35,0-1.9.25-11.94.48-32,.29-24.82.27-39-6.22-41.35A5.51,5.51,0,0,0,408.4,11Z"/><rect class="cls-4" x="342.28" y="1.83" width="152.36" height="199.71" rx="76.18" ry="76.18"/><line class="cls-4" x1="342.28" y1="168.25" x2="494.64" y2="168.25"/><line class="cls-4" x1="342.28" y1="134.97" x2="494.64" y2="134.97"/><line class="cls-4" x1="342.28" y1="101.68" x2="494.64" y2="101.68"/><line class="cls-4" x1="342.28" y1="68.4" x2="494.64" y2="68.4"/><line class="cls-4" x1="342.28" y1="35.11" x2="494.64" y2="35.11"/><line class="cls-4" x1="469.24" y1="1.83" x2="469.24" y2="201.53"/><line class="cls-4" x1="443.85" y1="1.83" x2="443.85" y2="201.53"/><line class="cls-4" x1="418.46" y1="1.83" x2="418.46" y2="201.53"/><line class="cls-4" x1="393.06" y1="1.83" x2="393.06" y2="201.53"/><line class="cls-4" x1="367.67" y1="1.83" x2="367.67" y2="201.53"/><circle class="cls-5" cx="382.93" cy="53.2" r="3.38"/><circle class="cls-5" cx="404.24" cy="53.67" r="3.38"/><circle class="cls-5" cx="403.55" cy="87.05" r="3.38"/><circle class="cls-5" cx="402.83" cy="118" r="3.38"/><circle class="cls-5" cx="359.94" cy="119" r="3.38"/><circle class="cls-5" cx="379.55" cy="153.37" r="3.38"/><circle class="cls-5" cx="379.55" cy="118.47" r="3.38"/><circle class="cls-5" cx="379.55" cy="87.05" r="3.38"/><circle class="cls-5" cx="455.11" cy="149.99" r="3.38"/><circle class="cls-5" cx="455.11" cy="119.47" r="3.38"/><circle class="cls-5" cx="429.22" cy="119" r="3.38"/><circle class="cls-5" cx="455.11" cy="53.67" r="3.38"/><circle class="cls-5" cx="455.11" cy="87.05" r="3.38"/><circle class="cls-5" cx="429.22" cy="150.95" r="3.38"/><circle class="cls-5" cx="429.6" cy="53.67" r="3.38"/><circle class="cls-5" cx="429.6" cy="87.05" r="3.38"/><circle class="cls-5" cx="403.55" cy="151.95" r="3.38"/><circle class="cls-5" cx="476.1" cy="119.47" r="3.38"/><line class="cls-6" x1="400.17" y1="87.05" x2="382.93" y2="87.05"/><line class="cls-6" x1="429.22" y1="122.38" x2="429.22" y2="147.57"/><line class="cls-6" x1="455.11" y1="90.43" x2="455.11" y2="92.93"/><line class="cls-7" x1="455.11" y1="97.06" x2="455.11" y2="111.52"/><line class="cls-6" x1="455.11" y1="113.59" x2="455.11" y2="116.09"/><line class="cls-6" x1="399.45" y1="118" x2="382.93" y2="118.47"/><line class="cls-6" x1="400.86" y1="53.67" x2="398.36" y2="53.59"/><line class="cls-8" x1="395.18" y1="53.48" x2="390.4" y2="53.33"/><line class="cls-6" x1="388.81" y1="53.28" x2="386.31" y2="53.2"/><line class="cls-9" x1="451.73" y1="53.67" x2="432.98" y2="53.67"/><line class="cls-6" x1="476.1" y1="122.85" x2="474.74" y2="124.95"/><line class="cls-10" x1="471.76" y1="129.54" x2="461.34" y2="145.59"/><line class="cls-6" x1="459.85" y1="147.89" x2="458.49" y2="149.99"/><line class="cls-11" x1="403.55" y1="155.33" x2="382.93" y2="118.47"/><line class="cls-6" x1="359.94" y1="115.62" x2="376.17" y2="87.05"/><line class="cls-11" x1="429.6" y1="57.05" x2="429.6" y2="83.67"/><line class="cls-6" x1="386.31" y1="53.2" x2="400.17" y2="87.05"/><line class="cls-6" x1="455.11" y1="57.05" x2="455.11" y2="83.67"/><text class="cls-13" transform="translate(358.67 238.51)">HCP(E) =</text><g class="cls-29"><path d="M413.38,219.68h2.69c.11,0,.32,0,.32-.23s-.2-.24-.32-.24h-2.69v-2.94c0-.12,0-.35-.21-.35s-.22.22-.22.35v2.94h-2.7c-.11,0-.32,0-.32.23s.2.24.32.24H413v2.93c0,.13,0,.36.21.36s.22-.22.22-.36v-2.93"/><path d="M420,245.15l1.53-4.39h-.32a4.64,4.64,0,0,1-3.27,2.77,14.54,14.54,0,0,1-3.91.42h-7.59l6.4-8.18c.09-.11.12-.15.12-.22s0-.07-.09-.2L407,226.62h6.9a16.5,16.5,0,0,1,2.94.22,6.66,6.66,0,0,1,2.77,1,4.26,4.26,0,0,1,1.6,1.94h.32L420,226H405.15c-.29,0-.3,0-.34.1s0,.3,0,.45l6.65,9.92-6.52,8.32c-.12.16-.12.23-.12.24s.11.16.34.16H420"/><path d="M426.07,235.5c.49-2.08,1.79-2.28,2.11-2.28a.86.86,0,0,1,.94.86c0,1.42-2,1.42-2.53,1.42h-.52m.59.31a5.21,5.21,0,0,0,1.93-.32,1.57,1.57,0,0,0,.94-1.41,1.22,1.22,0,0,0-1.35-1.16,3.58,3.58,0,0,0-3.29,3.72c0,1.4.74,2.48,2,2.48a3.34,3.34,0,0,0,2.86-1.61.18.18,0,0,0-.15-.18c-.06,0-.09,0-.16.13a3.18,3.18,0,0,1-2.52,1.36c-1,0-1.1-1.15-1.1-1.59a6.66,6.66,0,0,1,.21-1.42Z"/><path d="M431.21,239.87a1.59,1.59,0,0,0-.07.41.81.81,0,0,0,.83.81c.88,0,1.26-1.32,1.26-1.46a.12.12,0,0,0-.14-.13c-.12,0-.13.06-.16.16-.2.77-.59,1.16-.93,1.16-.18,0-.22-.12-.22-.33a1.74,1.74,0,0,1,.14-.62c.09-.25.18-.51.28-.76l.43-1.21a1.12,1.12,0,0,0,.05-.31.81.81,0,0,0-.83-.81c-.87,0-1.28,1.3-1.28,1.46s.13.12.15.12.13,0,.16-.15c.23-.82.62-1.17.94-1.17.14,0,.22.08.22.34a2.76,2.76,0,0,1-.27,1l-.56,1.53M433,235a.36.36,0,0,0-.35-.37.55.55,0,0,0-.5.53.35.35,0,0,0,.35.36A.54.54,0,0,0,433,235Z"/><path d="M445.46,235.82c.22,0,.44,0,.44-.27s-.22-.28-.44-.28h-6.81c-.21,0-.44,0-.44.28s.23.27.44.27h6.81"/><path d="M461.4,219.68c.14,0,.35,0,.35-.23s-.2-.24-.35-.24h-5.24c-.14,0-.35,0-.35.23s.2.24.35.24h5.24"/><path d="M465.64,245.15l1.53-4.39h-.32a4.64,4.64,0,0,1-3.27,2.77,14.46,14.46,0,0,1-3.91.42h-7.59l6.4-8.18c.09-.11.12-.15.12-.22s0-.07-.09-.2l-5.86-8.73h6.89a16.8,16.8,0,0,1,2.95.22,6.63,6.63,0,0,1,2.76,1,4.26,4.26,0,0,1,1.6,1.94h.32L465.64,226H450.77c-.29,0-.3,0-.34.1s0,.3,0,.45l6.65,9.92-6.51,8.32c-.13.16-.13.23-.13.24s.11.16.34.16h14.87"/><path d="M471.73,235.5c.49-2.08,1.78-2.28,2.11-2.28a.85.85,0,0,1,.93.86c0,1.42-2,1.42-2.53,1.42h-.51m.59.31a5.17,5.17,0,0,0,1.92-.32,1.56,1.56,0,0,0,.95-1.41,1.22,1.22,0,0,0-1.35-1.16,3.58,3.58,0,0,0-3.3,3.72c0,1.4.75,2.48,2,2.48a3.34,3.34,0,0,0,2.86-1.61.18.18,0,0,0-.15-.18c-.07,0-.09,0-.17.13a3.15,3.15,0,0,1-2.51,1.36c-1,0-1.1-1.15-1.1-1.59a6.32,6.32,0,0,1,.2-1.42Z"/><path d="M477.81,241.46c-.15.66-.61,1.22-1.13,1.22a.83.83,0,0,1-.32-.06.55.55,0,0,0,.3-.49.33.33,0,0,0-.34-.35.54.54,0,0,0-.5.56c0,.37.34.6.87.6a1.91,1.91,0,0,0,1.82-1.51l.79-3.42a1,1,0,0,0,.05-.33.9.9,0,0,0-.94-.9c-1,0-1.54,1.33-1.54,1.46s.12.12.15.12.11,0,.18-.17c.22-.55.67-1.15,1.18-1.15.22,0,.3.17.3.47a1.72,1.72,0,0,1,0,.29l-.84,3.66m1.86-6.44a.35.35,0,0,0-.35-.37.55.55,0,0,0-.49.53.35.35,0,0,0,.35.36A.54.54,0,0,0,479.67,235Z"/></g><g class="cls-30"><path d="M574.36,228.35H576c.37,0,.56,0,.56-.39,0-.21-.19-.21-.51-.21h-1.55l.39-2.24c.08-.41.34-1.8.45-2a1,1,0,0,1,.88-.66,1.33,1.33,0,0,1,.92.35,1.07,1.07,0,0,0-1,1.06.66.66,0,0,0,.69.68,1.1,1.1,0,0,0,1-1.17,1.48,1.48,0,0,0-1.63-1.35c-.63,0-1.81.35-2.38,2.29-.11.41-.17.61-.62,3.08H571.9c-.35,0-.56,0-.56.37s.17.23.52.23h1.24l-1.4,7.75c-.34,1.9-.66,3.68-1.63,3.68a1.29,1.29,0,0,1-.9-.35,1,1,0,0,0,1-1.06.66.66,0,0,0-.7-.68,1.1,1.1,0,0,0-1,1.17,1.48,1.48,0,0,0,1.6,1.36c1,0,1.78-1.16,2.11-1.91a18.09,18.09,0,0,0,1.05-3.74l1.13-6.22"/><path d="M584.85,240.9c0-.06,0-.1-.32-.43-2.34-2.47-2.94-6.18-2.94-9.17,0-3.42.71-6.83,3-9.28.25-.23.25-.27.25-.33a.18.18,0,0,0-.19-.2,8.48,8.48,0,0,0-3,3.83,15.71,15.71,0,0,0,.06,12.09,8.34,8.34,0,0,0,2.92,3.69.18.18,0,0,0,.19-.2"/><path d="M592.21,230.28c.11-.51.54-2.32,1.85-2.32a1.74,1.74,0,0,1,.94.26,1.13,1.13,0,0,0-.9,1.06.67.67,0,0,0,.71.68,1.07,1.07,0,0,0,1-1.13c0-1-1.11-1.3-1.75-1.3a2.47,2.47,0,0,0-2,1.49,2.07,2.07,0,0,0-2-1.49c-2,0-3,2.53-3,3a.2.2,0,0,0,.23.2c.15,0,.21,0,.24-.22.64-2.08,1.88-2.57,2.51-2.57.36,0,1,.18,1,1.32a29.42,29.42,0,0,1-1,4.66c-.3,1.22-.95,2-1.78,2a1.74,1.74,0,0,1-.93-.25,1.1,1.1,0,0,0,.88-1.06.66.66,0,0,0-.7-.69,1.09,1.09,0,0,0-1,1.14c0,.9.94,1.29,1.76,1.29,1.24,0,1.92-1.37,2-1.49a2.08,2.08,0,0,0,2,1.49c1.93,0,3-2.53,3-3,0-.19-.16-.19-.22-.19s-.21.08-.24.21c-.62,2.1-1.9,2.57-2.5,2.57s-1-.63-1-1.29a8.4,8.4,0,0,1,.32-1.73l.64-2.68"/><path d="M602.06,231.3a14.84,14.84,0,0,0-1.23-6.12,8.4,8.4,0,0,0-2.93-3.69.19.19,0,0,0-.19.2c0,.06,0,.1.36.45,1.84,1.94,2.91,5.06,2.91,9.16,0,3.35-.7,6.8-3,9.27-.25.23-.25.27-.25.33a.19.19,0,0,0,.19.2,8.41,8.41,0,0,0,3-3.83,14.7,14.7,0,0,0,1.18-6"/><path d="M622,233.59c.26,0,.62,0,.62-.39s-.36-.39-.64-.39H610.8c-.28,0-.63,0-.63.39s.35.39.61.39H622m0-3.8c.28,0,.64,0,.64-.4s-.36-.39-.62-.39H610.78c-.26,0-.61,0-.61.39s.35.4.63.4Z"/><path d="M638.62,224.59a4.15,4.15,0,0,1-1.69,3.39,3.63,3.63,0,0,0-1.44-.23c-.4,0-1.44,0-1.44.62s1,.49,1.29.49a3.15,3.15,0,0,0,1.53-.25,2.72,2.72,0,0,1,.83,2.22,6.43,6.43,0,0,1-.94,3.37,4,4,0,0,1-3,1.76c-1.43,0-2.14-1.14-2.14-2.53a3.11,3.11,0,0,1,.1-.86l1.19-5c.42-1.69,1.77-4.8,4-4.8a1.59,1.59,0,0,1,1.75,1.78m-2.33,3.71a2.28,2.28,0,0,1-.9.13,2.14,2.14,0,0,1-.82-.08c0-.19.71-.15.92-.15A1.83,1.83,0,0,1,636.29,228.3Zm3.38-3.26a2.55,2.55,0,0,0-2.55-2.68,3.21,3.21,0,0,0-2.27.82,8.47,8.47,0,0,0-2.42,4.18l-3,12.44a.21.21,0,0,0,.23.2c.15,0,.2,0,.22-.1l1.32-5.41a2.45,2.45,0,0,0,2.54,1.9,5.31,5.31,0,0,0,3.62-1.55,5.06,5.06,0,0,0,1.5-3.6,3.59,3.59,0,0,0-1.37-2.92A4.12,4.12,0,0,0,639.67,225Z"/><path d="M649.51,228.14l-1.57-3.9c-.06-.16-.1-.24-.1-.26s.32-.49,1.11-.57c.19,0,.37,0,.37-.37s-.22-.23-.28-.23c-.77,0-1.57.06-2.36.06-.47,0-1.63-.06-2.1-.06-.11,0-.33,0-.33.39,0,.21.18.21.43.21,1.12,0,1.23.2,1.4.63l2.21,5.47L644.34,234l-.24.22a3.73,3.73,0,0,1-2.76,1.41c-.24,0-.41,0-.41.39a.21.21,0,0,0,.24.22c.56,0,1.18-.06,1.76-.06s1.43.06,2.1.06c.11,0,.34,0,.34-.4a.22.22,0,0,0-.23-.21c-.16,0-.74-.06-.74-.61a1.58,1.58,0,0,1,.5-.88l1.91-2.12,1.69-1.92,1.89,4.69a1.32,1.32,0,0,1,.1.27c0,.16-.36.49-1.09.57-.21,0-.38,0-.38.37s.21.24.29.24c.52,0,1.83-.06,2.36-.06s1.61.06,2.08.06c.13,0,.35,0,.35-.38,0-.23-.19-.23-.34-.23-1.25,0-1.29-.08-1.61-.86-.73-1.83-2-4.88-2.41-6.06,1.27-1.37,3.24-3.71,3.84-4.26a3.73,3.73,0,0,1,2.38-1c.24,0,.41,0,.41-.39,0,0,0-.21-.24-.21-.57,0-1.18.06-1.77.06s-1.4-.06-2.08-.06c-.11,0-.35,0-.35.39,0,.14.09.2.22.21s.75.06.75.61a1.2,1.2,0,0,1-.35.71l-3,3.41"/><path d="M669.22,231.69h5.23c.26,0,.62,0,.62-.39s-.36-.4-.62-.4h-5.23v-5.49c0-.27,0-.64-.38-.64s-.37.37-.37.64v5.49h-5.25c-.26,0-.62,0-.62.4s.36.39.62.39h5.25v5.49c0,.27,0,.64.37.64s.38-.37.38-.64v-5.49"/><path d="M685.87,231.77c.3,0,.64,0,.64-.34s-.23-.27-.55-.27h-3c.45-1.67,1.5-2.81,3.2-2.81h.58c.32,0,.62,0,.62-.33s-.24-.27-.56-.27h-.66a5,5,0,0,0-4.94,5,3.42,3.42,0,0,0,3.39,3.7,3.32,3.32,0,0,0,2.44-1c0-.06,0-.27-.19-.27s-.08,0-.25.12a3.67,3.67,0,0,1-2,.72c-1.09,0-2-.82-2-2.55a7.76,7.76,0,0,1,.21-1.66h3.09"/></g></g></g></svg>