<svg xmlns="http://www.w3.org/2000/svg" xmlns:xlink="http://www.w3.org/1999/xlink" viewBox="0 0 675.4 245.15"><defs><style>.cls-1,.cls-3,.cls-6{fill:none;}.cls-2{fill:#ed1c24;stroke:#ed1c24;}.cls-2,.cls-3,.cls-4,.cls-5,.cls-6{stroke-miterlimit:10;}.cls-3,.cls-4{stroke:#231f20;}.cls-4,.cls-5,.cls-7{fill:#231f20;}.cls-5,.cls-6{stroke:#939598;}.cls-7{font-size:12px;font-family:MyriadPro-Regular, Myriad Pro;}.cls-8{letter-spacing:0em;}.cls-9{letter-spacing:-0.01em;}.cls-10{letter-spacing:-0.01em;}.cls-11{letter-spacing:-0.01em;}.cls-12{letter-spacing:0em;}.cls-13{letter-spacing:0em;}.cls-14{letter-spacing:0em;}.cls-15{letter-spacing:-0.01em;}.cls-16{letter-spacing:0.01em;}.cls-17{letter-spacing:0.01em;}.cls-18{letter-spacing:0.01em;}.cls-19{letter-spacing:0em;}.cls-20{letter-spacing:-0.02em;}.cls-21{letter-spacing:0em;}.cls-22{letter-spacing:0em;}.cls-23{clip-path:url(#clip-path);}.cls-24{clip-path:url(#clip-path-2);}</style><clipPath id="clip-path"><rect class="cls-1" x="378.29" y="215.85" width="75.33" height="29.3"/></clipPath><clipPath id="clip-path-2"><rect class="cls-1" x="525.92" y="223.32" width="119.49" height="18.02"/></clipPath></defs><title>hcp</title><g id="Layer_2" data-name="Layer 2"><g id="Layer_1-2" data-name="Layer 1"><circle class="cls-2" cx="161.9" cy="118.32" r="3.38"/><line class="cls-3" x1="510.96" y1="10.1" x2="512.24" y2="188.61"/><line class="cls-3" x1="487.88" y1="168.61" x2="675.06" y2="168.61"/><circle class="cls-4" cx="538.49" cy="79.36" r="3.38"/><circle class="cls-4" cx="567.67" cy="100.55" r="3.38"/><circle class="cls-4" cx="632.36" cy="61.37" r="3.38"/><circle class="cls-4" cx="620.65" cy="49.48" r="3.38"/><circle class="cls-4" cx="599.65" cy="64.75" r="3.38"/><circle class="cls-4" cx="548.37" cy="127.69" r="3.38"/><circle class="cls-4" cx="524.77" cy="135.41" r="3.38"/><circle class="cls-4" cx="591.08" cy="92.16" r="3.38"/><circle class="cls-4" cx="571.05" cy="79.36" r="3.38"/><circle class="cls-4" cx="551.75" cy="103.93" r="3.38"/><circle class="cls-4" cx="581.47" cy="116.05" r="3.38"/><circle class="cls-4" cx="599.65" cy="34.28" r="3.38"/><circle class="cls-4" cx="660.26" cy="30.9" r="3.38"/><circle class="cls-4" cx="611.79" cy="79.36" r="3.38"/><circle class="cls-4" cx="646.53" cy="16.2" r="3.38"/><circle class="cls-4" cx="541.87" cy="149.33" r="3.38"/><circle class="cls-4" cx="627.41" cy="34.51" r="3.38"/><circle class="cls-4" cx="646.53" cy="38.13" r="3.38"/><line class="cls-2" x1="675.06" y1="0.36" x2="507.65" y2="160.49"/><line class="cls-5" x1="511.11" y1="36.9" x2="498.14" y2="37.13"/><line class="cls-5" x1="512.02" y1="142.83" x2="499.05" y2="143.07"/><line class="cls-5" x1="510.47" y1="116.19" x2="497.5" y2="116.42"/><line class="cls-5" x1="510.98" y1="90.66" x2="498.01" y2="90.9"/><line class="cls-5" x1="510.3" y1="63.25" x2="497.33" y2="63.49"/><line class="cls-6" x1="538.15" y1="168.61" x2="538.15" y2="181.62"/><line class="cls-6" x1="620.41" y1="168.61" x2="620.41" y2="181.62"/><line class="cls-6" x1="647.71" y1="169.12" x2="647.71" y2="182.12"/><line class="cls-6" x1="593.01" y1="169.11" x2="593.01" y2="182.12"/><line class="cls-6" x1="565.13" y1="168.61" x2="565.13" y2="181.62"/><text class="cls-7" transform="translate(486.33 112.67) rotate(-88.8)"><tspan class="cls-8">B</tspan><tspan x="6.55" y="0">eh</tspan><tspan class="cls-9" x="19.22" y="0">a</tspan><tspan x="24.91" y="0">vior</tspan></text><text class="cls-7" transform="translate(562.24 199.64)">HCP s<tspan class="cls-10" x="28.46" y="0">c</tspan><tspan x="33.77" y="0">o</tspan><tspan class="cls-11" x="40.36" y="0">r</tspan><tspan class="cls-12" x="44.16" y="0">e</tspan></text><text class="cls-7" transform="translate(0 237.83)">B<tspan class="cls-13" x="6.5" y="0">r</tspan><tspan class="cls-14" x="10.37" y="0">ain </tspan><tspan class="cls-15" x="28.16" y="0">C</tspan><tspan x="34.99" y="0">onne</tspan><tspan class="cls-16" x="60.91" y="0">c</tspan><tspan x="66.44" y="0">tivi</tspan><tspan class="cls-17" x="81.8" y="0">t</tspan><tspan x="85.88" y="0">y Ne</tspan><tspan class="cls-18" x="107.99" y="0">t</tspan><tspan class="cls-11" x="112.07" y="0">w</tspan><tspan x="120.78" y="0">o</tspan><tspan class="cls-19" x="127.37" y="0">r</tspan><tspan x="131.34" y="0">k</tspan></text><text class="cls-7" transform="translate(169.63 237.83)"><tspan class="cls-20">P</tspan><tspan x="6.08" y="0">ositi</tspan><tspan class="cls-11" x="27.01" y="0">v</tspan><tspan class="cls-21" x="32.66" y="0">e and Neg</tspan><tspan class="cls-22" x="83.59" y="0">a</tspan><tspan class="cls-21" x="89.33" y="0">ti</tspan><tspan class="cls-11" x="96.11" y="0">v</tspan><tspan class="cls-21" x="101.76" y="0">e edges</tspan></text><text class="cls-7" transform="translate(332.28 238.51)">HCP(E) =</text><g class="cls-23"><path d="M387,219.68h2.69c.12,0,.33,0,.33-.23s-.21-.24-.33-.24H387v-2.94c0-.12,0-.35-.21-.35s-.22.22-.22.35v2.94h-2.69c-.12,0-.33,0-.33.23s.21.24.33.24h2.69v2.93c0,.13,0,.36.21.36s.22-.22.22-.36v-2.93"/><path d="M393.63,245.15l1.52-4.39h-.31a4.66,4.66,0,0,1-3.27,2.77,14.58,14.58,0,0,1-3.92.42h-7.59l6.41-8.18c.09-.11.11-.15.11-.22s0-.07-.09-.2l-5.86-8.73h6.9a16.62,16.62,0,0,1,2.94.22,6.71,6.71,0,0,1,2.77,1,4.32,4.32,0,0,1,1.6,1.94h.31L393.63,226H378.75c-.29,0-.3,0-.34.1s0,.3,0,.45l6.66,9.92-6.52,8.32c-.13.16-.13.23-.13.24s.12.16.34.16h14.88"/><path d="M399.68,235.5c.49-2.08,1.78-2.28,2.11-2.28a.85.85,0,0,1,.93.86c0,1.42-2,1.42-2.53,1.42h-.51m.59.31a5.2,5.2,0,0,0,1.92-.32,1.58,1.58,0,0,0,.95-1.41,1.22,1.22,0,0,0-1.35-1.16,3.58,3.58,0,0,0-3.3,3.72c0,1.4.75,2.48,2,2.48a3.34,3.34,0,0,0,2.86-1.61.18.18,0,0,0-.15-.18c-.07,0-.09,0-.17.13a3.16,3.16,0,0,1-2.52,1.36c-1,0-1.09-1.15-1.09-1.59a6.32,6.32,0,0,1,.2-1.42Z"/><path d="M404.82,239.87a1.57,1.57,0,0,0-.08.41.81.81,0,0,0,.84.81c.87,0,1.26-1.32,1.26-1.46a.12.12,0,0,0-.14-.13c-.12,0-.13.06-.17.16-.2.77-.59,1.16-.93,1.16-.17,0-.22-.12-.22-.33a1.74,1.74,0,0,1,.14-.62l.28-.76c.08-.23.4-1.1.43-1.21a1.13,1.13,0,0,0,.06-.31.81.81,0,0,0-.84-.81c-.87,0-1.27,1.3-1.27,1.46s.12.12.15.12.13,0,.16-.15c.22-.82.61-1.17.94-1.17.14,0,.22.08.22.34a2.88,2.88,0,0,1-.28,1l-.55,1.53m1.79-4.85a.35.35,0,0,0-.35-.37.54.54,0,0,0-.49.53.35.35,0,0,0,.35.36A.54.54,0,0,0,406.61,235Z"/><path d="M419.07,235.82c.21,0,.44,0,.44-.27s-.23-.28-.44-.28h-6.81c-.21,0-.44,0-.44.28s.23.27.44.27h6.81"/><path d="M435,219.68c.14,0,.35,0,.35-.23s-.2-.24-.35-.24h-5.23c-.14,0-.35,0-.35.23s.2.24.35.24H435"/><path d="M439.25,245.15l1.52-4.39h-.31a4.66,4.66,0,0,1-3.27,2.77,14.58,14.58,0,0,1-3.92.42h-7.59l6.41-8.18c.09-.11.11-.15.11-.22a.37.37,0,0,0-.08-.2l-5.87-8.73h6.9a16.62,16.62,0,0,1,2.94.22,6.66,6.66,0,0,1,2.77,1,4.32,4.32,0,0,1,1.6,1.94h.31L439.25,226H424.38c-.29,0-.31,0-.34.1a2.64,2.64,0,0,0,0,.45l6.66,9.92-6.52,8.32c-.12.16-.12.23-.12.24s.11.16.34.16h14.87"/><path d="M445.33,235.5c.49-2.08,1.79-2.28,2.12-2.28a.85.85,0,0,1,.93.86c0,1.42-2,1.42-2.53,1.42h-.52m.59.31a5.21,5.21,0,0,0,1.93-.32,1.57,1.57,0,0,0,.94-1.41,1.21,1.21,0,0,0-1.34-1.16,3.58,3.58,0,0,0-3.3,3.72c0,1.4.74,2.48,2,2.48a3.32,3.32,0,0,0,2.85-1.61.18.18,0,0,0-.15-.18c-.06,0-.09,0-.16.13a3.18,3.18,0,0,1-2.52,1.36c-1,0-1.09-1.15-1.09-1.59a6.32,6.32,0,0,1,.2-1.42Z"/><path d="M451.42,241.46c-.15.66-.62,1.22-1.14,1.22a.78.78,0,0,1-.31-.06.55.55,0,0,0,.3-.49.34.34,0,0,0-.35-.35.54.54,0,0,0-.5.56c0,.37.35.6.87.6a1.92,1.92,0,0,0,1.83-1.51l.79-3.42a1.06,1.06,0,0,0,0-.33.89.89,0,0,0-.94-.9c-1,0-1.53,1.33-1.53,1.46s.12.12.15.12.11,0,.17-.17c.22-.55.68-1.15,1.19-1.15.22,0,.3.17.3.47a1.72,1.72,0,0,1,0,.29l-.84,3.66m1.86-6.44a.36.36,0,0,0-.35-.37.54.54,0,0,0-.49.53.35.35,0,0,0,.35.36A.55.55,0,0,0,453.28,235Z"/></g><g class="cls-24"><path d="M532,229.77h1.61c.38,0,.57,0,.57-.35,0-.2-.19-.2-.51-.2h-1.56l.4-2a15.13,15.13,0,0,1,.45-1.82,1,1,0,0,1,.88-.59,1.48,1.48,0,0,1,.92.31,1,1,0,0,0-1,1,.63.63,0,0,0,.7.61,1,1,0,0,0,1-1.05c0-.81-.86-1.21-1.63-1.21a2.54,2.54,0,0,0-2.38,2,27.45,27.45,0,0,0-.62,2.74h-1.29c-.36,0-.56,0-.56.34s.16.21.52.21h1.24l-1.41,6.91c-.34,1.7-.65,3.29-1.63,3.29a1.4,1.4,0,0,1-.9-.32,1,1,0,0,0,1-.94.63.63,0,0,0-.69-.61,1,1,0,0,0-1,1.05c0,.78.82,1.2,1.59,1.2,1,0,1.78-1,2.12-1.7a14.76,14.76,0,0,0,1.05-3.34l1.12-5.54"/><path d="M542.45,241c0-.05,0-.08-.32-.38-2.34-2.2-2.94-5.51-2.94-8.19,0-3,.72-6.09,3-8.27.24-.21.24-.25.24-.3a.16.16,0,0,0-.18-.18,7.75,7.75,0,0,0-3,3.42,11.89,11.89,0,0,0-1.18,5.33,12,12,0,0,0,1.23,5.46,7.79,7.79,0,0,0,2.93,3.29.16.16,0,0,0,.18-.18"/><path d="M549.81,231.48c.12-.45.55-2.06,1.86-2.06a2,2,0,0,1,.94.22,1,1,0,0,0-.9,1,.63.63,0,0,0,.71.61,1,1,0,0,0,1-1c0-.91-1.1-1.16-1.74-1.16a2.42,2.42,0,0,0-2,1.33,2.09,2.09,0,0,0-2-1.33c-2,0-3,2.26-3,2.7,0,.17.19.17.23.17s.2,0,.24-.19c.64-1.86,1.87-2.29,2.51-2.29.36,0,1,.15,1,1.17a24.36,24.36,0,0,1-1,4.16c-.3,1.09-1,1.82-1.78,1.82a2,2,0,0,1-.94-.22,1,1,0,0,0,.88-.95.62.62,0,0,0-.69-.61,1,1,0,0,0-1,1c0,.81.94,1.16,1.76,1.16a2.48,2.48,0,0,0,2-1.33,2.05,2.05,0,0,0,2,1.33c1.93,0,3-2.26,3-2.7,0-.17-.17-.17-.22-.17s-.21.07-.25.19c-.62,1.87-1.89,2.29-2.49,2.29a1,1,0,0,1-1-1.15,6.2,6.2,0,0,1,.32-1.54l.63-2.4"/><path d="M559.67,232.39a12.07,12.07,0,0,0-1.24-5.46,7.73,7.73,0,0,0-2.92-3.29.18.18,0,0,0-.19.18c0,.05,0,.09.36.4,1.83,1.73,2.9,4.52,2.9,8.17,0,3-.69,6.07-3,8.28-.24.21-.24.24-.24.29a.18.18,0,0,0,.19.18,7.83,7.83,0,0,0,3-3.41,12.1,12.1,0,0,0,1.18-5.34"/><path d="M579.62,234.44c.26,0,.61,0,.61-.35s-.35-.35-.63-.35H568.41c-.28,0-.64,0-.64.35s.36.35.62.35h11.23m0-3.4c.28,0,.63,0,.63-.35s-.35-.35-.61-.35H568.39c-.26,0-.62,0-.62.35s.36.35.64.35Z"/><path d="M596.22,226.41a3.6,3.6,0,0,1-1.68,3,4.08,4.08,0,0,0-1.45-.21c-.39,0-1.44,0-1.44.56s1,.44,1.29.44a3.43,3.43,0,0,0,1.54-.23,2.32,2.32,0,0,1,.83,2,5.4,5.4,0,0,1-.94,3,4.14,4.14,0,0,1-3.06,1.58,2.06,2.06,0,0,1-2.13-2.26,2.73,2.73,0,0,1,.09-.77l1.2-4.43c.41-1.5,1.76-4.28,4-4.28,1.09,0,1.74.54,1.74,1.59m-2.32,3.3a2.28,2.28,0,0,1-.9.13,2.61,2.61,0,0,1-.82-.07c0-.18.71-.14.91-.14A2.29,2.29,0,0,1,593.9,229.71Zm3.37-2.9a2.42,2.42,0,0,0-2.55-2.4,3.39,3.39,0,0,0-2.26.74,7.45,7.45,0,0,0-2.42,3.73l-3,11.1c0,.07.07.18.22.18s.21,0,.23-.09l1.31-4.83a2.45,2.45,0,0,0,2.55,1.7,5.69,5.69,0,0,0,3.62-1.38,4.32,4.32,0,0,0,1.5-3.22,3.13,3.13,0,0,0-1.37-2.61A3.68,3.68,0,0,0,597.27,226.81Z"/><path d="M607.12,229.57l-1.58-3.48c0-.14-.09-.21-.09-.22s.32-.44,1.11-.51c.18,0,.37,0,.37-.33s-.23-.21-.28-.21c-.77,0-1.58.05-2.36.05-.47,0-1.63-.05-2.1-.05-.11,0-.34,0-.34.35,0,.19.19.19.43.19,1.13,0,1.24.17,1.41.56l2.21,4.88-3.95,4-.25.19a3.88,3.88,0,0,1-2.75,1.26c-.25,0-.41,0-.41.35,0,0,0,.2.24.2.56,0,1.18-.06,1.76-.06s1.42.06,2.1.06c.11,0,.34,0,.34-.35,0-.18-.19-.2-.23-.2s-.75-.05-.75-.54c0-.28.28-.56.51-.79l1.91-1.89,1.69-1.71,1.89,4.18a1.23,1.23,0,0,1,.09.25c0,.14-.35.43-1.09.5-.2,0-.37,0-.37.34s.21.21.28.21c.53,0,1.84-.06,2.36-.06s1.61.06,2.08.06c.13,0,.36,0,.36-.34s-.19-.21-.34-.21c-1.25,0-1.29-.07-1.61-.77-.73-1.62-2-4.35-2.42-5.4,1.28-1.23,3.24-3.31,3.84-3.8a4,4,0,0,1,2.38-.89c.25,0,.42,0,.42-.35,0,0,0-.19-.25-.19-.56,0-1.18.05-1.76.05s-1.4-.05-2.08-.05c-.11,0-.35,0-.35.35,0,.12.09.17.22.19s.75,0,.75.54a1,1,0,0,1-.36.63l-3,3"/><path d="M626.83,232.74h5.22c.27,0,.62,0,.62-.35s-.35-.35-.62-.35h-5.22v-4.9c0-.24,0-.57-.38-.57s-.37.33-.37.57V232h-5.25c-.26,0-.62,0-.62.35s.36.35.62.35h5.25v4.9c0,.25,0,.58.37.58s.38-.33.38-.58v-4.9"/><path d="M643.48,232.81c.3,0,.63,0,.63-.3s-.22-.24-.54-.24h-3a3.2,3.2,0,0,1,3.21-2.5h.58c.32,0,.62,0,.62-.3s-.24-.25-.56-.25h-.66c-2.44,0-5,1.75-5,4.43a3.23,3.23,0,0,0,3.4,3.31,3.53,3.53,0,0,0,2.43-.89c0-.06,0-.25-.19-.25s-.07,0-.24.11a3.94,3.94,0,0,1-2,.64,2,2,0,0,1-2-2.27,7.07,7.07,0,0,1,.2-1.49h3.1"/></g></g></g></svg>