<svg xmlns="http://www.w3.org/2000/svg" xmlns:xlink="http://www.w3.org/1999/xlink" viewBox="0 0 701.8 245.15"><defs><style>.cls-1,.cls-10,.cls-11,.cls-14,.cls-2,.cls-4,.cls-6,.cls-7,.cls-8,.cls-9{fill:none;}.cls-10,.cls-11,.cls-12,.cls-2,.cls-4,.cls-6,.cls-7,.cls-8,.cls-9{stroke:#231f20;}.cls-10,.cls-11,.cls-12,.cls-13,.cls-14,.cls-2,.cls-4,.cls-5,.cls-6,.cls-7,.cls-8,.cls-9{stroke-miterlimit:10;}.cls-2{stroke-width:2px;}.cls-12,.cls-13,.cls-15,.cls-3{fill:#231f20;}.cls-5{fill:#ed1c24;stroke:#ed1c24;}.cls-10,.cls-11,.cls-6,.cls-7,.cls-8{stroke-width:3px;}.cls-7{stroke-dasharray:4.13 4.13;}.cls-8{stroke-dasharray:3.18 3.18;}.cls-9{stroke-width:4px;}.cls-10{stroke-dasharray:5.47 5.47;}.cls-11{stroke-dasharray:5;}.cls-13,.cls-14{stroke:#939598;}.cls-15{font-size:12px;font-family:MyriadPro-Regular, Myriad Pro;}.cls-16{letter-spacing:0em;}.cls-17{letter-spacing:-0.01em;}.cls-18{letter-spacing:-0.01em;}.cls-19{letter-spacing:-0.01em;}.cls-20{letter-spacing:0em;}.cls-21{letter-spacing:0em;}.cls-22{letter-spacing:0em;}.cls-23{letter-spacing:-0.01em;}.cls-24{letter-spacing:0.01em;}.cls-25{letter-spacing:0.01em;}.cls-26{letter-spacing:0.01em;}.cls-27{letter-spacing:0em;}.cls-28{letter-spacing:-0.02em;}.cls-29{letter-spacing:0em;}.cls-30{letter-spacing:0em;}.cls-31{clip-path:url(#clip-path);}.cls-32{clip-path:url(#clip-path-2);}</style><clipPath id="clip-path"><rect class="cls-1" x="404.69" y="215.85" width="75.33" height="29.3"/></clipPath><clipPath id="clip-path-2"><rect class="cls-1" x="552.31" y="223.32" width="119.49" height="18.02"/></clipPath></defs><title>hcp</title><g id="Layer_2" data-name="Layer 2"><g id="Layer_1-2" data-name="Layer 1"><path class="cls-2" d="M253.42,9.74C270.24,3.79,326.05,63.88,315,122.56c-6.7,35.45-37.28,67.59-52.56,62.82-13.52-4.21-14.15-37-15.39-101.28C246.09,36.37,245.64,12.5,253.42,9.74Z"/><ellipse class="cls-2" cx="246.81" cy="100.5" rx="76.18" ry="99.35"/><path class="cls-3" d="M227.12,186.85c-3.49,0-7.53-1.33-11.87-3.94-14.81-8.89-33.31-33-38.44-60.16-4.56-24.1,2.4-46.53,9-61.1,7.62-16.75,19.41-32.94,31.52-43.33C226.5,10.49,234.63,7,239.66,8.8c8.47,3,8,25.66,7.08,75.31-1.25,65.12-1.88,97.8-16.09,102.23A11.91,11.91,0,0,1,227.12,186.85Zm9.64-176.52c-4.43,0-11,3.39-18.09,9.51-11.9,10.2-23.49,26.14-31,42.64-6.52,14.3-13.35,36.31-8.9,59.9,5,26.59,23.08,50.15,37.51,58.82,5.4,3.24,10.16,4.36,13.78,3.23,12.83-4,13.49-38.22,14.68-100.35,0-1.9.25-11.94.48-32,.29-24.82.26-39-6.22-41.35A5.58,5.58,0,0,0,236.76,10.33Z"/><rect class="cls-4" x="170.63" y="1.15" width="152.36" height="199.71" rx="76.18" ry="76.18"/><line class="cls-4" x1="170.63" y1="167.57" x2="322.99" y2="167.57"/><line class="cls-4" x1="170.63" y1="134.29" x2="322.99" y2="134.29"/><line class="cls-4" x1="170.63" y1="101" x2="322.99" y2="101"/><line class="cls-4" x1="170.63" y1="67.72" x2="322.99" y2="67.72"/><line class="cls-4" x1="170.63" y1="34.43" x2="322.99" y2="34.43"/><line class="cls-4" x1="297.6" y1="1.15" x2="297.6" y2="200.86"/><line class="cls-4" x1="272.21" y1="1.15" x2="272.21" y2="200.86"/><line class="cls-4" x1="246.81" y1="1.15" x2="246.81" y2="200.86"/><line class="cls-4" x1="221.42" y1="1.15" x2="221.42" y2="200.86"/><line class="cls-4" x1="196.03" y1="1.15" x2="196.03" y2="200.86"/><circle class="cls-5" cx="211.29" cy="52.52" r="3.38"/><circle class="cls-5" cx="232.6" cy="52.99" r="3.38"/><circle class="cls-5" cx="231.9" cy="86.37" r="3.38"/><circle class="cls-5" cx="231.19" cy="117.32" r="3.38"/><circle class="cls-5" cx="188.3" cy="118.32" r="3.38"/><circle class="cls-5" cx="207.91" cy="152.69" r="3.38"/><circle class="cls-5" cx="207.91" cy="117.79" r="3.38"/><circle class="cls-5" cx="207.91" cy="86.37" r="3.38"/><circle class="cls-5" cx="283.46" cy="149.31" r="3.38"/><circle class="cls-5" cx="283.46" cy="118.79" r="3.38"/><circle class="cls-5" cx="257.58" cy="118.32" r="3.38"/><circle class="cls-5" cx="283.46" cy="52.99" r="3.38"/><circle class="cls-5" cx="283.46" cy="86.37" r="3.38"/><circle class="cls-5" cx="257.58" cy="150.27" r="3.38"/><circle class="cls-5" cx="257.96" cy="52.99" r="3.38"/><circle class="cls-5" cx="257.96" cy="86.37" r="3.38"/><circle class="cls-5" cx="231.9" cy="151.27" r="3.38"/><circle class="cls-5" cx="304.46" cy="118.79" r="3.38"/><path class="cls-2" d="M83.79,9.74c16.82-5.95,72.63,54.14,61.54,112.82C138.63,158,108,190.15,92.76,185.38c-13.52-4.21-14.15-37-15.38-101.28C76.46,36.37,76,12.5,83.79,9.74Z"/><ellipse class="cls-2" cx="77.18" cy="100.5" rx="76.18" ry="99.35"/><path class="cls-3" d="M57.49,186.85c-3.49,0-7.53-1.33-11.88-3.94-14.8-8.89-33.3-33-38.43-60.16-4.56-24.1,2.4-46.53,9-61.1C23.84,44.9,35.63,28.71,47.74,18.32,56.87,10.49,65,7,70,8.8c8.47,3,8,25.66,7.08,75.31-1.25,65.12-1.88,97.8-16.09,102.23A11.91,11.91,0,0,1,57.49,186.85ZM67.13,10.33c-4.44,0-11,3.39-18.09,9.51C37.14,30,25.55,46,18,62.48c-6.51,14.3-13.35,36.31-8.89,59.9,5,26.59,23.07,50.15,37.5,58.82,5.4,3.24,10.17,4.36,13.78,3.23,12.84-4,13.49-38.22,14.69-100.35,0-1.9.24-11.94.48-32,.29-24.82.26-39-6.23-41.35A5.49,5.49,0,0,0,67.13,10.33Z"/><rect class="cls-4" x="1" y="1.15" width="152.36" height="199.71" rx="76.18" ry="76.18"/><line class="cls-4" x1="1" y1="167.57" x2="153.36" y2="167.57"/><line class="cls-4" x1="1" y1="134.29" x2="153.36" y2="134.29"/><line class="cls-4" x1="1" y1="101" x2="153.36" y2="101"/><line class="cls-4" x1="1" y1="67.72" x2="153.36" y2="67.72"/><line class="cls-4" x1="1" y1="34.43" x2="153.36" y2="34.43"/><line class="cls-4" x1="127.97" y1="1.15" x2="127.97" y2="200.86"/><line class="cls-4" x1="102.58" y1="1.15" x2="102.58" y2="200.86"/><line class="cls-4" x1="77.18" y1="1.15" x2="77.18" y2="200.86"/><line class="cls-4" x1="51.79" y1="1.15" x2="51.79" y2="200.86"/><line class="cls-4" x1="26.39" y1="1.15" x2="26.39" y2="200.86"/><circle class="cls-5" cx="41.66" cy="52.52" r="3.38"/><circle class="cls-5" cx="60.96" cy="52.99" r="3.38"/><circle class="cls-5" cx="62.27" cy="86.37" r="3.38"/><circle class="cls-5" cx="61.56" cy="118.32" r="3.38"/><circle class="cls-5" cx="18.66" cy="118.32" r="3.38"/><circle class="cls-5" cx="38.28" cy="152.69" r="3.38"/><circle class="cls-5" cx="38.28" cy="116.79" r="3.38"/><circle class="cls-5" cx="38.28" cy="86.37" r="3.38"/><circle class="cls-5" cx="113.83" cy="149.31" r="3.38"/><circle class="cls-5" cx="113.83" cy="118.79" r="3.38"/><circle class="cls-5" cx="87.95" cy="118.32" r="3.38"/><circle class="cls-5" cx="113.83" cy="52.99" r="3.38"/><circle class="cls-5" cx="113.83" cy="86.37" r="3.38"/><circle class="cls-5" cx="87.95" cy="150.27" r="3.38"/><circle class="cls-5" cx="88.33" cy="52.99" r="3.38"/><circle class="cls-5" cx="88.33" cy="86.37" r="3.38"/><circle class="cls-5" cx="62.27" cy="151.27" r="3.38"/><circle class="cls-5" cx="134.83" cy="118.79" r="3.38"/><line class="cls-6" x1="228.52" y1="86.37" x2="211.29" y2="86.37"/><line class="cls-6" x1="257.58" y1="121.7" x2="257.58" y2="146.89"/><line class="cls-6" x1="283.46" y1="89.75" x2="283.46" y2="92.25"/><line class="cls-7" x1="283.46" y1="96.38" x2="283.46" y2="110.84"/><line class="cls-6" x1="283.46" y1="112.91" x2="283.46" y2="115.41"/><line class="cls-6" x1="227.81" y1="117.32" x2="211.29" y2="117.79"/><line class="cls-6" x1="229.21" y1="52.99" x2="226.72" y2="52.91"/><line class="cls-8" x1="223.53" y1="52.8" x2="218.76" y2="52.65"/><line class="cls-6" x1="217.17" y1="52.6" x2="214.67" y2="52.52"/><line class="cls-9" x1="280.08" y1="52.99" x2="261.34" y2="52.99"/><line class="cls-6" x1="304.46" y1="122.17" x2="303.1" y2="124.27"/><line class="cls-10" x1="300.12" y1="128.86" x2="289.69" y2="144.91"/><line class="cls-6" x1="288.2" y1="147.21" x2="286.84" y2="149.31"/><line class="cls-11" x1="231.9" y1="154.65" x2="211.29" y2="117.79"/><line class="cls-6" x1="188.3" y1="114.94" x2="204.53" y2="86.37"/><line class="cls-11" x1="257.96" y1="56.37" x2="257.96" y2="82.99"/><line class="cls-6" x1="214.67" y1="52.52" x2="228.52" y2="86.37"/><line class="cls-6" x1="283.46" y1="56.37" x2="283.46" y2="82.99"/><line class="cls-4" x1="537.35" y1="10.1" x2="538.63" y2="188.61"/><line class="cls-4" x1="514.27" y1="168.61" x2="701.45" y2="168.61"/><circle class="cls-12" cx="564.88" cy="79.36" r="3.38"/><circle class="cls-12" cx="594.07" cy="100.55" r="3.38"/><circle class="cls-12" cx="658.75" cy="61.37" r="3.38"/><circle class="cls-12" cx="647.04" cy="49.48" r="3.38"/><circle class="cls-12" cx="626.05" cy="64.75" r="3.38"/><circle class="cls-12" cx="574.76" cy="127.69" r="3.38"/><circle class="cls-12" cx="551.16" cy="135.41" r="3.38"/><circle class="cls-12" cx="617.48" cy="92.16" r="3.38"/><circle class="cls-12" cx="597.45" cy="79.36" r="3.38"/><circle class="cls-12" cx="578.14" cy="103.93" r="3.38"/><circle class="cls-12" cx="607.86" cy="116.05" r="3.38"/><circle class="cls-12" cx="626.05" cy="34.28" r="3.38"/><circle class="cls-12" cx="686.65" cy="30.9" r="3.38"/><circle class="cls-12" cx="638.18" cy="79.36" r="3.38"/><circle class="cls-12" cx="672.93" cy="16.2" r="3.38"/><circle class="cls-12" cx="568.26" cy="149.33" r="3.38"/><circle class="cls-12" cx="653.8" cy="34.51" r="3.38"/><circle class="cls-12" cx="672.93" cy="38.13" r="3.38"/><line class="cls-5" x1="701.45" y1="0.36" x2="534.04" y2="160.49"/><line class="cls-13" x1="537.5" y1="36.9" x2="524.53" y2="37.13"/><line class="cls-13" x1="538.41" y1="142.83" x2="525.44" y2="143.07"/><line class="cls-13" x1="536.86" y1="116.19" x2="523.89" y2="116.42"/><line class="cls-13" x1="537.37" y1="90.66" x2="524.4" y2="90.9"/><line class="cls-13" x1="536.7" y1="63.25" x2="523.73" y2="63.49"/><line class="cls-14" x1="564.54" y1="168.61" x2="564.54" y2="181.62"/><line class="cls-14" x1="646.8" y1="168.61" x2="646.8" y2="181.62"/><line class="cls-14" x1="674.1" y1="169.12" x2="674.1" y2="182.12"/><line class="cls-14" x1="619.4" y1="169.11" x2="619.4" y2="182.12"/><line class="cls-14" x1="591.52" y1="168.61" x2="591.52" y2="181.62"/><text class="cls-15" transform="translate(512.72 112.67) rotate(-88.8)"><tspan class="cls-16">B</tspan><tspan x="6.55" y="0">eh</tspan><tspan class="cls-17" x="19.22" y="0">a</tspan><tspan x="24.91" y="0">vior</tspan></text><text class="cls-15" transform="translate(588.63 199.64)">HCP s<tspan class="cls-18" x="28.46" y="0">c</tspan><tspan x="33.77" y="0">o</tspan><tspan class="cls-19" x="40.36" y="0">r</tspan><tspan class="cls-20" x="44.16" y="0">e</tspan></text><text class="cls-15" transform="translate(26.39 237.83)">B<tspan class="cls-21" x="6.5" y="0">r</tspan><tspan class="cls-22" x="10.37" y="0">ain </tspan><tspan class="cls-23" x="28.16" y="0">C</tspan><tspan x="34.99" y="0">onne</tspan><tspan class="cls-24" x="60.91" y="0">c</tspan><tspan x="66.44" y="0">tivi</tspan><tspan class="cls-25" x="81.8" y="0">t</tspan><tspan x="85.88" y="0">y Ne</tspan><tspan class="cls-26" x="107.99" y="0">t</tspan><tspan class="cls-19" x="112.07" y="0">w</tspan><tspan x="120.78" y="0">o</tspan><tspan class="cls-27" x="127.37" y="0">r</tspan><tspan x="131.34" y="0">k</tspan></text><text class="cls-15" transform="translate(196.03 237.83)"><tspan class="cls-28">P</tspan><tspan x="6.08" y="0">ositi</tspan><tspan class="cls-19" x="27.01" y="0">v</tspan><tspan class="cls-29" x="32.66" y="0">e and Neg</tspan><tspan class="cls-30" x="83.59" y="0">a</tspan><tspan class="cls-29" x="89.33" y="0">ti</tspan><tspan class="cls-19" x="96.11" y="0">v</tspan><tspan class="cls-29" x="101.76" y="0">e edges</tspan></text><path class="cls-2" d="M425.07,10.42c16.82-5.95,72.63,54.14,61.53,112.82-6.7,35.45-37.28,67.59-52.56,62.82-13.52-4.21-14.15-37-15.38-101.28C417.74,37,417.28,13.18,425.07,10.42Z"/><ellipse class="cls-2" cx="418.46" cy="101.18" rx="76.18" ry="99.35"/><path class="cls-3" d="M398.77,187.53c-3.5,0-7.53-1.33-11.88-3.94-14.8-8.89-33.3-33-38.44-60.16-4.55-24.1,2.4-46.53,9-61.1C365.12,45.58,376.9,29.39,389,19c9.13-7.83,17.25-11.3,22.29-9.52,8.46,3,8,25.66,7.07,75.31-1.25,65.12-1.88,97.8-16.08,102.23A12,12,0,0,1,398.77,187.53ZM408.4,11c-4.43,0-10.95,3.39-18.08,9.51-11.91,10.2-23.5,26.14-31,42.64-6.52,14.3-13.35,36.31-8.89,59.9,5,26.59,23.07,50.15,37.5,58.82,5.4,3.24,10.16,4.36,13.78,3.23,12.83-4,13.49-38.22,14.68-100.35,0-1.9.25-11.94.48-32,.29-24.82.27-39-6.22-41.35A5.51,5.51,0,0,0,408.4,11Z"/><rect class="cls-4" x="342.28" y="1.83" width="152.36" height="199.71" rx="76.18" ry="76.18"/><line class="cls-4" x1="342.28" y1="168.25" x2="494.64" y2="168.25"/><line class="cls-4" x1="342.28" y1="134.97" x2="494.64" y2="134.97"/><line class="cls-4" x1="342.28" y1="101.68" x2="494.64" y2="101.68"/><line class="cls-4" x1="342.28" y1="68.4" x2="494.64" y2="68.4"/><line class="cls-4" x1="342.28" y1="35.11" x2="494.64" y2="35.11"/><line class="cls-4" x1="469.24" y1="1.83" x2="469.24" y2="201.53"/><line class="cls-4" x1="443.85" y1="1.83" x2="443.85" y2="201.53"/><line class="cls-4" x1="418.46" y1="1.83" x2="418.46" y2="201.53"/><line class="cls-4" x1="393.06" y1="1.83" x2="393.06" y2="201.53"/><line class="cls-4" x1="367.67" y1="1.83" x2="367.67" y2="201.53"/><circle class="cls-5" cx="382.93" cy="53.2" r="3.38"/><circle class="cls-5" cx="404.24" cy="53.67" r="3.38"/><circle class="cls-5" cx="403.55" cy="87.05" r="3.38"/><circle class="cls-5" cx="402.83" cy="118" r="3.38"/><circle class="cls-5" cx="359.94" cy="119" r="3.38"/><circle class="cls-5" cx="379.55" cy="153.37" r="3.38"/><circle class="cls-5" cx="379.55" cy="118.47" r="3.38"/><circle class="cls-5" cx="379.55" cy="87.05" r="3.38"/><circle class="cls-5" cx="455.11" cy="149.99" r="3.38"/><circle class="cls-5" cx="455.11" cy="119.47" r="3.38"/><circle class="cls-5" cx="429.22" cy="119" r="3.38"/><circle class="cls-5" cx="455.11" cy="53.67" r="3.38"/><circle class="cls-5" cx="455.11" cy="87.05" r="3.38"/><circle class="cls-5" cx="429.22" cy="150.95" r="3.38"/><circle class="cls-5" cx="429.6" cy="53.67" r="3.38"/><circle class="cls-5" cx="429.6" cy="87.05" r="3.38"/><circle class="cls-5" cx="403.55" cy="151.95" r="3.38"/><circle class="cls-5" cx="476.1" cy="119.47" r="3.38"/><line class="cls-6" x1="400.17" y1="87.05" x2="382.93" y2="87.05"/><line class="cls-6" x1="429.22" y1="122.38" x2="429.22" y2="147.57"/><line class="cls-6" x1="455.11" y1="90.43" x2="455.11" y2="92.93"/><line class="cls-7" x1="455.11" y1="97.06" x2="455.11" y2="111.52"/><line class="cls-6" x1="455.11" y1="113.59" x2="455.11" y2="116.09"/><line class="cls-6" x1="399.45" y1="118" x2="382.93" y2="118.47"/><line class="cls-6" x1="400.86" y1="53.67" x2="398.36" y2="53.59"/><line class="cls-8" x1="395.18" y1="53.48" x2="390.4" y2="53.33"/><line class="cls-6" x1="388.81" y1="53.28" x2="386.31" y2="53.2"/><line class="cls-9" x1="451.73" y1="53.67" x2="432.98" y2="53.67"/><line class="cls-6" x1="476.1" y1="122.85" x2="474.74" y2="124.95"/><line class="cls-10" x1="471.76" y1="129.54" x2="461.34" y2="145.59"/><line class="cls-6" x1="459.85" y1="147.89" x2="458.49" y2="149.99"/><line class="cls-11" x1="403.55" y1="155.33" x2="382.93" y2="118.47"/><line class="cls-6" x1="359.94" y1="115.62" x2="376.17" y2="87.05"/><line class="cls-11" x1="429.6" y1="57.05" x2="429.6" y2="83.67"/><line class="cls-6" x1="386.31" y1="53.2" x2="400.17" y2="87.05"/><line class="cls-6" x1="455.11" y1="57.05" x2="455.11" y2="83.67"/><text class="cls-15" transform="translate(358.67 238.51)">HCP(E) =</text><g class="cls-31"><path d="M413.38,219.68h2.69c.11,0,.32,0,.32-.23s-.2-.24-.32-.24h-2.69v-2.94c0-.12,0-.35-.21-.35s-.22.22-.22.35v2.94h-2.7c-.11,0-.32,0-.32.23s.2.24.32.24H413v2.93c0,.13,0,.36.21.36s.22-.22.22-.36v-2.93"/><path d="M420,245.15l1.53-4.39h-.32a4.64,4.64,0,0,1-3.27,2.77,14.54,14.54,0,0,1-3.91.42h-7.59l6.4-8.18c.09-.11.12-.15.12-.22s0-.07-.09-.2L407,226.62h6.9a16.5,16.5,0,0,1,2.94.22,6.66,6.66,0,0,1,2.77,1,4.26,4.26,0,0,1,1.6,1.94h.32L420,226H405.15c-.29,0-.3,0-.34.1s0,.3,0,.45l6.65,9.92-6.52,8.32c-.12.16-.12.23-.12.24s.11.16.34.16H420"/><path d="M426.07,235.5c.49-2.08,1.79-2.28,2.11-2.28a.86.86,0,0,1,.94.86c0,1.42-2,1.42-2.53,1.42h-.52m.59.31a5.21,5.21,0,0,0,1.93-.32,1.57,1.57,0,0,0,.94-1.41,1.22,1.22,0,0,0-1.35-1.16,3.58,3.58,0,0,0-3.29,3.72c0,1.4.74,2.48,2,2.48a3.34,3.34,0,0,0,2.86-1.61.18.18,0,0,0-.15-.18c-.06,0-.09,0-.16.13a3.18,3.18,0,0,1-2.52,1.36c-1,0-1.1-1.15-1.1-1.59a6.66,6.66,0,0,1,.21-1.42Z"/><path d="M431.21,239.87a1.59,1.59,0,0,0-.07.41.81.81,0,0,0,.83.81c.88,0,1.26-1.32,1.26-1.46a.12.12,0,0,0-.14-.13c-.12,0-.13.06-.16.16-.2.77-.59,1.16-.93,1.16-.18,0-.22-.12-.22-.33a1.74,1.74,0,0,1,.14-.62c.09-.25.18-.51.28-.76l.43-1.21a1.12,1.12,0,0,0,.05-.31.81.81,0,0,0-.83-.81c-.87,0-1.28,1.3-1.28,1.46s.13.12.15.12.13,0,.16-.15c.23-.82.62-1.17.94-1.17.14,0,.22.08.22.34a2.76,2.76,0,0,1-.27,1l-.56,1.53M433,235a.36.36,0,0,0-.35-.37.55.55,0,0,0-.5.53.35.35,0,0,0,.35.36A.54.54,0,0,0,433,235Z"/><path d="M445.46,235.82c.22,0,.44,0,.44-.27s-.22-.28-.44-.28h-6.81c-.21,0-.44,0-.44.28s.23.27.44.27h6.81"/><path d="M461.4,219.68c.14,0,.35,0,.35-.23s-.2-.24-.35-.24h-5.24c-.14,0-.35,0-.35.23s.2.24.35.24h5.24"/><path d="M465.64,245.15l1.53-4.39h-.32a4.64,4.64,0,0,1-3.27,2.77,14.46,14.46,0,0,1-3.91.42h-7.59l6.4-8.18c.09-.11.12-.15.12-.22s0-.07-.09-.2l-5.86-8.73h6.89a16.8,16.8,0,0,1,2.95.22,6.63,6.63,0,0,1,2.76,1,4.26,4.26,0,0,1,1.6,1.94h.32L465.64,226H450.77c-.29,0-.3,0-.34.1s0,.3,0,.45l6.65,9.92-6.51,8.32c-.13.16-.13.23-.13.24s.11.16.34.16h14.87"/><path d="M471.73,235.5c.49-2.08,1.78-2.28,2.11-2.28a.85.85,0,0,1,.93.86c0,1.42-2,1.42-2.53,1.42h-.51m.59.31a5.17,5.17,0,0,0,1.92-.32,1.56,1.56,0,0,0,.95-1.41,1.22,1.22,0,0,0-1.35-1.16,3.58,3.58,0,0,0-3.3,3.72c0,1.4.75,2.48,2,2.48a3.34,3.34,0,0,0,2.86-1.61.18.18,0,0,0-.15-.18c-.07,0-.09,0-.17.13a3.15,3.15,0,0,1-2.51,1.36c-1,0-1.1-1.15-1.1-1.59a6.32,6.32,0,0,1,.2-1.42Z"/><path d="M477.81,241.46c-.15.66-.61,1.22-1.13,1.22a.83.83,0,0,1-.32-.06.55.55,0,0,0,.3-.49.33.33,0,0,0-.34-.35.54.54,0,0,0-.5.56c0,.37.34.6.87.6a1.91,1.91,0,0,0,1.82-1.51l.79-3.42a1,1,0,0,0,.05-.33.9.9,0,0,0-.94-.9c-1,0-1.54,1.33-1.54,1.46s.12.12.15.12.11,0,.18-.17c.22-.55.67-1.15,1.18-1.15.22,0,.3.17.3.47a1.72,1.72,0,0,1,0,.29l-.84,3.66m1.86-6.44a.35.35,0,0,0-.35-.37.55.55,0,0,0-.49.53.35.35,0,0,0,.35.36A.54.54,0,0,0,479.67,235Z"/></g><g class="cls-32"><path d="M558.36,229.77H560c.37,0,.56,0,.56-.35,0-.2-.19-.2-.51-.2h-1.55l.39-2a17.3,17.3,0,0,1,.45-1.82,1,1,0,0,1,.88-.59,1.44,1.44,0,0,1,.92.31,1,1,0,0,0-1,1,.63.63,0,0,0,.69.61,1,1,0,0,0,1-1.05c0-.81-.86-1.21-1.63-1.21a2.56,2.56,0,0,0-2.38,2,27.45,27.45,0,0,0-.62,2.74H555.9c-.35,0-.56,0-.56.34s.17.21.52.21h1.24l-1.4,6.91c-.34,1.7-.66,3.29-1.63,3.29a1.37,1.37,0,0,1-.9-.32,1,1,0,0,0,1-.94.63.63,0,0,0-.7-.61,1,1,0,0,0-1,1.05c0,.78.83,1.2,1.6,1.2,1,0,1.78-1,2.11-1.7a14.76,14.76,0,0,0,1.05-3.34l1.13-5.54"/><path d="M568.85,241c0-.05,0-.08-.32-.38-2.34-2.2-2.94-5.51-2.94-8.19,0-3,.71-6.09,3-8.27.25-.21.25-.25.25-.3a.17.17,0,0,0-.19-.18,7.81,7.81,0,0,0-3,3.42,11.89,11.89,0,0,0-1.18,5.33,12,12,0,0,0,1.24,5.46,7.73,7.73,0,0,0,2.92,3.29.17.17,0,0,0,.19-.18"/><path d="M576.21,231.48c.11-.45.54-2.06,1.85-2.06a2,2,0,0,1,.94.22,1.05,1.05,0,0,0-.9,1,.63.63,0,0,0,.71.61,1,1,0,0,0,1-1c0-.91-1.11-1.16-1.75-1.16a2.44,2.44,0,0,0-2,1.33,2.08,2.08,0,0,0-2-1.33c-2,0-3,2.26-3,2.7,0,.17.19.17.23.17s.21,0,.24-.19c.64-1.86,1.88-2.29,2.51-2.29.36,0,1,.15,1,1.17a23.83,23.83,0,0,1-1,4.16c-.3,1.09-.95,1.82-1.78,1.82a1.94,1.94,0,0,1-.93-.22,1,1,0,0,0,.88-.95.63.63,0,0,0-.7-.61,1,1,0,0,0-1,1c0,.81.94,1.16,1.76,1.16a2.46,2.46,0,0,0,2-1.33,2.06,2.06,0,0,0,2,1.33c1.93,0,3-2.26,3-2.7,0-.17-.16-.17-.22-.17a.21.21,0,0,0-.24.19c-.62,1.87-1.9,2.29-2.5,2.29a1,1,0,0,1-1-1.15,6.71,6.71,0,0,1,.32-1.54l.64-2.4"/><path d="M586.06,232.39a12,12,0,0,0-1.23-5.46,7.79,7.79,0,0,0-2.93-3.29.18.18,0,0,0-.19.18c0,.05,0,.09.36.4,1.84,1.73,2.91,4.52,2.91,8.17,0,3-.7,6.07-3,8.28-.25.21-.25.24-.25.29a.18.18,0,0,0,.19.18,7.76,7.76,0,0,0,3-3.41,12,12,0,0,0,1.18-5.34"/><path d="M606,234.44c.26,0,.62,0,.62-.35s-.36-.35-.64-.35H594.8c-.28,0-.63,0-.63.35s.35.35.61.35H606m0-3.4c.28,0,.64,0,.64-.35s-.36-.35-.62-.35H594.78c-.26,0-.61,0-.61.35s.35.35.63.35Z"/><path d="M622.62,226.41a3.58,3.58,0,0,1-1.69,3,4,4,0,0,0-1.44-.21c-.4,0-1.44,0-1.44.56s1,.44,1.29.44a3.41,3.41,0,0,0,1.53-.23,2.29,2.29,0,0,1,.83,2,5.25,5.25,0,0,1-.94,3,4.12,4.12,0,0,1-3,1.58,2.06,2.06,0,0,1-2.14-2.26,2.47,2.47,0,0,1,.1-.77l1.19-4.43c.42-1.5,1.77-4.28,4-4.28,1.09,0,1.75.54,1.75,1.59m-2.33,3.3a2.28,2.28,0,0,1-.9.13,2.64,2.64,0,0,1-.82-.07c0-.18.71-.14.92-.14A2.26,2.26,0,0,1,620.29,229.71Zm3.38-2.9a2.42,2.42,0,0,0-2.55-2.4,3.42,3.42,0,0,0-2.27.74,7.45,7.45,0,0,0-2.42,3.73l-3,11.1c0,.07.08.18.23.18s.2,0,.22-.09l1.32-4.83a2.43,2.43,0,0,0,2.54,1.7,5.67,5.67,0,0,0,3.62-1.38,4.32,4.32,0,0,0,1.5-3.22,3.1,3.1,0,0,0-1.37-2.61A3.67,3.67,0,0,0,623.67,226.81Z"/><path d="M633.51,229.57l-1.57-3.48-.1-.22c0-.11.32-.44,1.11-.51.19,0,.37,0,.37-.33s-.22-.21-.28-.21c-.77,0-1.57.05-2.36.05-.47,0-1.63-.05-2.1-.05-.11,0-.33,0-.33.35,0,.19.18.19.43.19,1.12,0,1.23.17,1.4.56l2.21,4.88-3.95,4-.24.19a3.89,3.89,0,0,1-2.76,1.26c-.24,0-.41,0-.41.35,0,0,0,.2.24.2.56,0,1.18-.06,1.76-.06s1.43.06,2.1.06c.11,0,.34,0,.34-.35,0-.18-.19-.2-.23-.2s-.74-.05-.74-.54c0-.28.28-.56.5-.79l1.91-1.89,1.69-1.71,1.89,4.18c.08.19.1.21.1.25s-.36.43-1.09.5c-.21,0-.38,0-.38.34s.21.21.29.21c.52,0,1.83-.06,2.36-.06s1.61.06,2.08.06c.13,0,.35,0,.35-.34s-.19-.21-.34-.21c-1.25,0-1.29-.07-1.61-.77-.73-1.62-2-4.35-2.41-5.4,1.27-1.23,3.24-3.31,3.84-3.8a3.94,3.94,0,0,1,2.38-.89c.24,0,.41,0,.41-.35,0,0,0-.19-.24-.19-.57,0-1.18.05-1.77.05s-1.4-.05-2.08-.05c-.11,0-.35,0-.35.35,0,.12.09.17.22.19s.75,0,.75.54a1,1,0,0,1-.35.63l-3,3"/><path d="M653.22,232.74h5.23c.26,0,.62,0,.62-.35s-.36-.35-.62-.35h-5.23v-4.9c0-.24,0-.57-.38-.57s-.37.33-.37.57V232h-5.25c-.26,0-.62,0-.62.35s.36.35.62.35h5.25v4.9c0,.25,0,.58.37.58s.38-.33.38-.58v-4.9"/><path d="M669.87,232.81c.3,0,.64,0,.64-.3s-.23-.24-.55-.24h-3a3.19,3.19,0,0,1,3.2-2.5h.58c.32,0,.62,0,.62-.3s-.24-.25-.56-.25h-.66c-2.43,0-4.94,1.75-4.94,4.43a3.22,3.22,0,0,0,3.39,3.31,3.54,3.54,0,0,0,2.44-.89c0-.06,0-.25-.19-.25s-.08,0-.25.11a3.93,3.93,0,0,1-2,.64,2,2,0,0,1-2-2.27,6.33,6.33,0,0,1,.21-1.49h3.09"/></g></g></g></svg>