<svg xmlns="http://www.w3.org/2000/svg" xmlns:xlink="http://www.w3.org/1999/xlink" viewBox="0 0 701.36 245.34"><defs><style>.cls-1,.cls-25,.cls-27,.cls-28,.cls-3,.cls-6{fill:none;}.cls-2{fill:#ed1c24;stroke:#ed1c24;}.cls-2,.cls-25,.cls-27,.cls-28,.cls-3,.cls-4,.cls-5,.cls-6{stroke-miterlimit:10;}.cls-25,.cls-27,.cls-3,.cls-4{stroke:#231f20;}.cls-26,.cls-4,.cls-5,.cls-7{fill:#231f20;}.cls-5,.cls-6{stroke:#939598;}.cls-7{font-size:12px;font-family:MyriadPro-Regular, Myriad Pro;}.cls-8{letter-spacing:0em;}.cls-9{letter-spacing:-0.01em;}.cls-10{letter-spacing:-0.01em;}.cls-11{letter-spacing:-0.01em;}.cls-12{letter-spacing:0em;}.cls-13{letter-spacing:0em;}.cls-14{letter-spacing:0em;}.cls-15{letter-spacing:-0.01em;}.cls-16{letter-spacing:0.01em;}.cls-17{letter-spacing:0.01em;}.cls-18{letter-spacing:0.01em;}.cls-19{letter-spacing:0em;}.cls-20{letter-spacing:-0.02em;}.cls-21{letter-spacing:0em;}.cls-22{letter-spacing:0em;}.cls-23{clip-path:url(#clip-path);}.cls-24{clip-path:url(#clip-path-2);}.cls-25{stroke-width:2px;}.cls-27{stroke-dasharray:5;}.cls-28{stroke:#58595b;}</style><clipPath id="clip-path"><rect class="cls-1" x="404.09" y="216.05" width="75.33" height="29.3"/></clipPath><clipPath id="clip-path-2"><rect class="cls-1" x="551.72" y="223.52" width="119.49" height="18.02"/></clipPath></defs><title>Asset 8</title><g id="Layer_2" data-name="Layer 2"><g id="Layer_1-2" data-name="Layer 1"><circle class="cls-2" cx="187.7" cy="118.52" r="3.38"/><line class="cls-3" x1="536.76" y1="10.3" x2="538.04" y2="188.81"/><line class="cls-3" x1="513.68" y1="168.81" x2="700.86" y2="168.81"/><circle class="cls-4" cx="564.29" cy="79.55" r="3.38"/><circle class="cls-4" cx="593.47" cy="100.75" r="3.38"/><circle class="cls-4" cx="658.16" cy="61.57" r="3.38"/><circle class="cls-4" cx="646.45" cy="49.68" r="3.38"/><circle class="cls-4" cx="625.45" cy="64.95" r="3.38"/><circle class="cls-4" cx="574.17" cy="127.88" r="3.38"/><circle class="cls-4" cx="550.57" cy="135.61" r="3.38"/><circle class="cls-4" cx="616.88" cy="92.35" r="3.38"/><circle class="cls-4" cx="596.85" cy="79.55" r="3.38"/><circle class="cls-4" cx="577.55" cy="104.13" r="3.38"/><circle class="cls-4" cx="607.27" cy="116.25" r="3.38"/><circle class="cls-4" cx="625.45" cy="34.47" r="3.38"/><circle class="cls-4" cx="686.06" cy="31.09" r="3.38"/><circle class="cls-4" cx="637.59" cy="79.55" r="3.38"/><circle class="cls-4" cx="672.33" cy="16.39" r="3.38"/><circle class="cls-4" cx="567.67" cy="149.53" r="3.38"/><circle class="cls-4" cx="653.21" cy="34.71" r="3.38"/><circle class="cls-4" cx="672.33" cy="38.33" r="3.38"/><line class="cls-2" x1="700.86" y1="0.56" x2="533.45" y2="160.69"/><line class="cls-5" x1="536.91" y1="37.09" x2="523.94" y2="37.33"/><line class="cls-5" x1="537.82" y1="143.03" x2="524.85" y2="143.27"/><line class="cls-5" x1="536.27" y1="116.39" x2="523.3" y2="116.62"/><line class="cls-5" x1="536.78" y1="90.86" x2="523.81" y2="91.09"/><line class="cls-5" x1="536.1" y1="63.45" x2="523.13" y2="63.69"/><line class="cls-6" x1="563.95" y1="168.81" x2="563.95" y2="181.81"/><line class="cls-6" x1="646.21" y1="168.81" x2="646.21" y2="181.81"/><line class="cls-6" x1="673.51" y1="169.31" x2="673.51" y2="182.32"/><line class="cls-6" x1="618.81" y1="169.31" x2="618.81" y2="182.31"/><line class="cls-6" x1="590.93" y1="168.81" x2="590.93" y2="181.81"/><text class="cls-7" transform="translate(512.13 112.86) rotate(-88.8)"><tspan class="cls-8">B</tspan><tspan x="6.55" y="0">eh</tspan><tspan class="cls-9" x="19.22" y="0">a</tspan><tspan x="24.91" y="0">vior</tspan></text><text class="cls-7" transform="translate(588.04 199.84)">HCP s<tspan class="cls-10" x="28.46" y="0">c</tspan><tspan x="33.77" y="0">o</tspan><tspan class="cls-11" x="40.36" y="0">r</tspan><tspan class="cls-12" x="44.16" y="0">e</tspan></text><text class="cls-7" transform="translate(25.8 238.03)">B<tspan class="cls-13" x="6.5" y="0">r</tspan><tspan class="cls-14" x="10.37" y="0">ain </tspan><tspan class="cls-15" x="28.16" y="0">C</tspan><tspan x="34.99" y="0">onne</tspan><tspan class="cls-16" x="60.91" y="0">c</tspan><tspan x="66.44" y="0">tivi</tspan><tspan class="cls-17" x="81.8" y="0">t</tspan><tspan x="85.88" y="0">y Ne</tspan><tspan class="cls-18" x="107.99" y="0">t</tspan><tspan class="cls-11" x="112.07" y="0">w</tspan><tspan x="120.78" y="0">o</tspan><tspan class="cls-19" x="127.37" y="0">r</tspan><tspan x="131.34" y="0">k</tspan></text><text class="cls-7" transform="translate(195.43 238.03)"><tspan class="cls-20">P</tspan><tspan x="6.08" y="0">ositi</tspan><tspan class="cls-11" x="27.01" y="0">v</tspan><tspan class="cls-21" x="32.66" y="0">e and Neg</tspan><tspan class="cls-22" x="83.59" y="0">a</tspan><tspan class="cls-21" x="89.33" y="0">ti</tspan><tspan class="cls-11" x="96.11" y="0">v</tspan><tspan class="cls-21" x="101.76" y="0">e edges</tspan></text><text class="cls-7" transform="translate(358.08 238.71)">HCP(E) =</text><g class="cls-23"><path d="M412.79,219.88h2.68c.12,0,.33,0,.33-.23s-.2-.24-.33-.24h-2.68v-2.94c0-.12,0-.35-.21-.35s-.22.22-.22.35v2.94h-2.7c-.11,0-.33,0-.33.23s.21.24.33.24h2.7v2.93c0,.13,0,.36.21.36s.22-.22.22-.36v-2.93"/><path d="M419.43,245.34,421,241h-.31a4.7,4.7,0,0,1-3.27,2.77,15.07,15.07,0,0,1-3.92.42h-7.59l6.41-8.18c.09-.11.11-.15.11-.22s0-.07-.08-.21l-5.87-8.72h6.9a18.52,18.52,0,0,1,2.94.21,6.81,6.81,0,0,1,2.77,1,4.36,4.36,0,0,1,1.6,1.95H421l-1.52-3.85H404.56c-.29,0-.31,0-.34.09a2.83,2.83,0,0,0,0,.46l6.66,9.92L404.34,245c-.12.16-.12.23-.12.24s.11.15.34.15h14.87"/><path d="M425.48,235.7c.49-2.08,1.79-2.29,2.11-2.29a.86.86,0,0,1,.93.87c0,1.42-2,1.42-2.53,1.42h-.51m.59.3a5.17,5.17,0,0,0,1.93-.31,1.57,1.57,0,0,0,.94-1.41,1.22,1.22,0,0,0-1.35-1.17,3.59,3.59,0,0,0-3.29,3.73c0,1.4.74,2.48,2,2.48a3.32,3.32,0,0,0,2.86-1.62c0-.08-.08-.18-.15-.18s-.09,0-.17.14A3.15,3.15,0,0,1,426.3,239c-1,0-1.1-1.15-1.1-1.59a6.37,6.37,0,0,1,.2-1.43Z"/><path d="M430.62,240.07a1.57,1.57,0,0,0-.08.4.82.82,0,0,0,.84.82c.88,0,1.26-1.32,1.26-1.47a.12.12,0,0,0-.14-.12c-.12,0-.13.06-.17.16-.2.77-.58,1.16-.93,1.16-.17,0-.22-.13-.22-.34a1.87,1.87,0,0,1,.14-.61c.09-.26.19-.51.29-.76s.39-1.1.43-1.22a1.57,1.57,0,0,0,0-.3.82.82,0,0,0-.84-.82c-.86,0-1.27,1.3-1.27,1.47s.12.12.15.12.13-.05.16-.15c.23-.82.61-1.17.94-1.17.14,0,.22.08.22.34a2.93,2.93,0,0,1-.27.95l-.56,1.54m1.79-4.86a.35.35,0,0,0-.35-.36.55.55,0,0,0-.49.53.35.35,0,0,0,.35.36A.54.54,0,0,0,432.41,235.21Z"/><path d="M444.87,236c.21,0,.44,0,.44-.28s-.23-.27-.44-.27h-6.81c-.21,0-.44,0-.44.27s.23.28.44.28h6.81"/><path d="M460.8,219.88c.15,0,.36,0,.36-.23s-.21-.24-.36-.24h-5.23c-.14,0-.35,0-.35.23s.2.24.35.24h5.23"/><path d="M465.05,245.34l1.52-4.38h-.31a4.68,4.68,0,0,1-3.27,2.77,15.07,15.07,0,0,1-3.92.42h-7.58l6.4-8.18c.09-.11.11-.15.11-.22s0-.07-.08-.21l-5.87-8.72H459a18.52,18.52,0,0,1,2.94.21,6.81,6.81,0,0,1,2.77,1,4.3,4.3,0,0,1,1.6,1.95h.31l-1.52-3.85H450.18c-.29,0-.3,0-.34.09a2.83,2.83,0,0,0,0,.46l6.66,9.92L450,245c-.12.16-.12.23-.12.24s.11.15.34.15h14.87"/><path d="M471.13,235.7c.5-2.08,1.79-2.29,2.12-2.29a.86.86,0,0,1,.93.87c0,1.42-2,1.42-2.53,1.42h-.52m.6.3a5.15,5.15,0,0,0,1.92-.31,1.58,1.58,0,0,0,1-1.41,1.22,1.22,0,0,0-1.35-1.17,3.59,3.59,0,0,0-3.3,3.73c0,1.4.74,2.48,2,2.48a3.3,3.3,0,0,0,2.85-1.62c0-.08-.07-.18-.15-.18s-.08,0-.16.14A3.17,3.17,0,0,1,472,239c-1,0-1.09-1.15-1.09-1.59a6.37,6.37,0,0,1,.2-1.43Z"/><path d="M477.22,241.66c-.15.66-.62,1.21-1.13,1.21a1.07,1.07,0,0,1-.32-.05.56.56,0,0,0,.3-.49.34.34,0,0,0-.34-.36.55.55,0,0,0-.51.57c0,.36.35.6.87.6a1.92,1.92,0,0,0,1.83-1.51l.79-3.42a1.13,1.13,0,0,0,0-.34.9.9,0,0,0-.93-.9c-1,0-1.54,1.33-1.54,1.47s.12.12.15.12.11,0,.17-.17c.22-.56.68-1.15,1.19-1.15.22,0,.3.16.3.47a1.72,1.72,0,0,1,0,.29l-.84,3.66m1.86-6.45a.35.35,0,0,0-.35-.36.54.54,0,0,0-.49.53.35.35,0,0,0,.35.36A.54.54,0,0,0,479.08,235.21Z"/></g><g class="cls-24"><path d="M557.76,230h1.62c.37,0,.56,0,.56-.35,0-.19-.19-.19-.51-.19h-1.55l.39-2a15.13,15.13,0,0,1,.45-1.82,1,1,0,0,1,.88-.6,1.43,1.43,0,0,1,.92.32,1,1,0,0,0-1,.94.63.63,0,0,0,.69.62,1,1,0,0,0,1-1.06c0-.8-.86-1.2-1.63-1.2a2.53,2.53,0,0,0-2.38,2.05,26.55,26.55,0,0,0-.62,2.74h-1.29c-.36,0-.56,0-.56.33s.17.21.52.21h1.24l-1.41,6.92c-.33,1.69-.65,3.28-1.63,3.28a1.43,1.43,0,0,1-.9-.31,1,1,0,0,0,1-.95.63.63,0,0,0-.69-.61,1,1,0,0,0-1,1.05c0,.79.82,1.21,1.59,1.21,1,0,1.78-1,2.12-1.7a14.92,14.92,0,0,0,1-3.34l1.12-5.55"/><path d="M568.26,241.16s0-.09-.32-.38c-2.35-2.21-3-5.51-3-8.19,0-3.05.72-6.09,3-8.28.25-.21.25-.24.25-.29a.17.17,0,0,0-.19-.18,7.76,7.76,0,0,0-3,3.41,12.7,12.7,0,0,0,0,10.8,7.79,7.79,0,0,0,2.93,3.29.17.17,0,0,0,.19-.18"/><path d="M575.62,231.68c.11-.46.54-2.07,1.85-2.07a2,2,0,0,1,.94.23,1,1,0,0,0-.9.95.63.63,0,0,0,.71.61,1,1,0,0,0,1-1c0-.91-1.1-1.15-1.74-1.15a2.42,2.42,0,0,0-2,1.33,2.07,2.07,0,0,0-2-1.33c-2,0-3,2.26-3,2.69,0,.18.19.18.23.18s.2,0,.24-.19c.64-1.86,1.87-2.3,2.51-2.3.36,0,1,.16,1,1.18a24.36,24.36,0,0,1-1,4.16c-.3,1.09-1,1.82-1.78,1.82a1.92,1.92,0,0,1-.94-.23,1,1,0,0,0,.88-.94.62.62,0,0,0-.69-.61,1,1,0,0,0-1,1c0,.81.94,1.16,1.76,1.16a2.48,2.48,0,0,0,2-1.33,2.06,2.06,0,0,0,2,1.33c1.93,0,3-2.26,3-2.7,0-.17-.17-.17-.22-.17s-.21.07-.25.19c-.62,1.87-1.89,2.29-2.49,2.29a1,1,0,0,1-1-1.15,6.2,6.2,0,0,1,.32-1.54l.64-2.4"/><path d="M585.47,232.59a12,12,0,0,0-1.24-5.46,7.73,7.73,0,0,0-2.92-3.29.18.18,0,0,0-.19.18s0,.08.36.4c1.83,1.73,2.9,4.51,2.9,8.17,0,3-.69,6.07-3,8.27-.25.21-.25.25-.25.3a.18.18,0,0,0,.19.18,7.81,7.81,0,0,0,3-3.42,12,12,0,0,0,1.18-5.33"/><path d="M605.42,234.64c.26,0,.61,0,.61-.35s-.35-.35-.63-.35H594.21c-.28,0-.64,0-.64.35s.36.35.62.35h11.23m0-3.4c.28,0,.63,0,.63-.35s-.35-.35-.61-.35H594.19c-.26,0-.62,0-.62.35s.36.35.64.35Z"/><path d="M622,226.61a3.6,3.6,0,0,1-1.68,3,4.06,4.06,0,0,0-1.44-.21c-.4,0-1.45,0-1.45.56s1,.44,1.3.44a3.55,3.55,0,0,0,1.53-.23,2.31,2.31,0,0,1,.83,2,5.43,5.43,0,0,1-.94,3,4.16,4.16,0,0,1-3,1.57A2.05,2.05,0,0,1,615,234.5a2.73,2.73,0,0,1,.09-.77l1.2-4.43c.41-1.5,1.76-4.29,4-4.29,1.09,0,1.74.55,1.74,1.6m-2.32,3.3a2.31,2.31,0,0,1-.9.12A2.35,2.35,0,0,1,618,230c0-.17.71-.14.92-.14A2,2,0,0,1,619.7,229.91Zm3.37-2.9a2.42,2.42,0,0,0-2.54-2.4,3.4,3.4,0,0,0-2.27.74,7.42,7.42,0,0,0-2.42,3.72l-3,11.11c0,.07.08.18.23.18s.2,0,.22-.09l1.31-4.83a2.45,2.45,0,0,0,2.55,1.7,5.69,5.69,0,0,0,3.62-1.38,4.32,4.32,0,0,0,1.5-3.22,3.13,3.13,0,0,0-1.37-2.61A3.66,3.66,0,0,0,623.07,227Z"/><path d="M632.92,229.77l-1.57-3.48a2.45,2.45,0,0,1-.1-.23c0-.1.32-.43,1.11-.5.18,0,.37,0,.37-.34s-.22-.21-.28-.21c-.77,0-1.57.06-2.36.06-.47,0-1.63-.06-2.1-.06-.11,0-.34,0-.34.35,0,.2.19.2.43.2,1.13,0,1.24.17,1.41.56L631.7,231l-4,4-.25.19a3.86,3.86,0,0,1-2.75,1.26c-.25,0-.41,0-.41.35,0,0,0,.19.24.19.56,0,1.18-.05,1.76-.05s1.43.05,2.1.05c.11,0,.34,0,.34-.35,0-.17-.19-.19-.23-.19s-.75,0-.75-.54c0-.28.28-.56.51-.79l1.91-1.89,1.69-1.71,1.89,4.18a1.73,1.73,0,0,1,.09.24c0,.14-.35.44-1.08.51-.21,0-.38,0-.38.33s.21.21.28.21c.53,0,1.84-.05,2.36-.05s1.62.05,2.08.05c.13,0,.36,0,.36-.33s-.19-.21-.34-.21c-1.25,0-1.29-.07-1.61-.77-.73-1.63-2-4.36-2.42-5.41,1.28-1.22,3.25-3.3,3.85-3.79a3.94,3.94,0,0,1,2.38-.89c.24,0,.41,0,.41-.35,0,0,0-.2-.25-.2-.56,0-1.18.06-1.76.06s-1.4-.06-2.08-.06c-.11,0-.35,0-.35.35,0,.13.09.18.22.2s.75.05.75.54a1.06,1.06,0,0,1-.36.63l-3,3"/><path d="M652.63,232.94h5.22c.27,0,.62,0,.62-.35s-.35-.35-.62-.35h-5.22v-4.9c0-.25,0-.58-.38-.58s-.37.33-.37.58v4.9h-5.25c-.26,0-.62,0-.62.35s.36.35.62.35h5.25v4.9c0,.24,0,.58.37.58s.38-.34.38-.58v-4.9"/><path d="M669.28,233c.3,0,.64,0,.64-.3s-.23-.24-.55-.24h-3a3.2,3.2,0,0,1,3.2-2.51h.58c.32,0,.62,0,.62-.29s-.24-.25-.56-.25h-.66c-2.43,0-4.95,1.75-4.95,4.43a3.23,3.23,0,0,0,3.4,3.31,3.47,3.47,0,0,0,2.43-.9s0-.24-.18-.24-.08,0-.25.1a4,4,0,0,1-2,.65,2,2,0,0,1-2-2.27,6.24,6.24,0,0,1,.21-1.49h3.09"/></g><rect class="cls-1" x="536.76" y="10.3" width="164.1" height="158.51"/><rect class="cls-6" x="536.76" y="10.3" width="164.1" height="158.51"/><line class="cls-6" x1="700.86" y1="36.72" x2="536.76" y2="36.72"/><line class="cls-6" x1="700.86" y1="63.14" x2="536.76" y2="63.14"/><line class="cls-6" x1="700.86" y1="89.56" x2="536.76" y2="89.56"/><line class="cls-6" x1="700.86" y1="115.97" x2="536.76" y2="115.97"/><line class="cls-6" x1="700.86" y1="142.39" x2="536.76" y2="142.39"/><line class="cls-6" x1="564.11" y1="168.81" x2="564.11" y2="10.3"/><line class="cls-6" x1="591.46" y1="168.81" x2="591.46" y2="10.3"/><line class="cls-6" x1="618.81" y1="168.81" x2="618.81" y2="10.3"/><line class="cls-6" x1="646.16" y1="168.81" x2="646.16" y2="10.3"/><line class="cls-6" x1="673.51" y1="168.81" x2="673.51" y2="10.3"/><path class="cls-25" d="M428.62,11.28c16.82-5.95,72.63,54.14,61.54,112.82-6.7,35.45-37.29,67.59-52.57,62.82-13.52-4.21-14.15-37-15.38-101.28C421.29,37.91,420.83,14,428.62,11.28Z"/><ellipse class="cls-25" cx="422.01" cy="102.04" rx="76.18" ry="99.35"/><path class="cls-26" d="M402.32,188.39c-3.5,0-7.53-1.33-11.88-3.94-14.8-8.89-33.3-33-38.44-60.16-4.55-24.1,2.4-46.53,9-61.1,7.63-16.75,19.41-32.94,31.53-43.33,9.13-7.83,17.25-11.3,22.29-9.52,8.46,3,8,25.66,7.07,75.31-1.25,65.12-1.87,97.8-16.08,102.23A11.91,11.91,0,0,1,402.32,188.39ZM412,11.87c-4.43,0-10.95,3.39-18.08,9.51-11.9,10.2-23.5,26.15-31,42.64-6.52,14.31-13.35,36.31-8.89,59.9,5,26.59,23.07,50.15,37.5,58.82,5.4,3.24,10.17,4.36,13.78,3.23,12.83-4,13.49-38.22,14.68-100.35,0-1.9.25-11.94.49-32,.29-24.83.26-39-6.23-41.36A5.51,5.51,0,0,0,412,11.87Z"/><rect class="cls-6" x="345.83" y="2.69" width="152.36" height="199.71" rx="76.18" ry="76.18"/><line class="cls-6" x1="345.83" y1="169.11" x2="498.19" y2="169.11"/><line class="cls-6" x1="345.83" y1="135.83" x2="498.19" y2="135.83"/><line class="cls-6" x1="345.83" y1="102.54" x2="498.19" y2="102.54"/><line class="cls-6" x1="345.83" y1="69.26" x2="498.19" y2="69.26"/><line class="cls-6" x1="345.83" y1="35.97" x2="498.19" y2="35.97"/><line class="cls-6" x1="472.8" y1="2.69" x2="472.8" y2="202.4"/><line class="cls-6" x1="447.4" y1="2.69" x2="447.4" y2="202.4"/><line class="cls-6" x1="422.01" y1="2.69" x2="422.01" y2="202.4"/><line class="cls-6" x1="396.61" y1="2.69" x2="396.61" y2="202.4"/><line class="cls-6" x1="371.22" y1="2.69" x2="371.22" y2="202.4"/><circle class="cls-2" cx="386.49" cy="54.06" r="3.38"/><circle class="cls-2" cx="407.79" cy="54.53" r="3.38"/><circle class="cls-2" cx="407.1" cy="87.91" r="3.38"/><circle class="cls-2" cx="406.38" cy="118.86" r="3.38"/><circle class="cls-2" cx="363.49" cy="119.86" r="3.38"/><circle class="cls-2" cx="383.11" cy="154.23" r="3.38"/><circle class="cls-2" cx="383.11" cy="119.33" r="3.38"/><circle class="cls-2" cx="383.11" cy="87.91" r="3.38"/><circle class="cls-2" cx="458.66" cy="150.85" r="3.38"/><circle class="cls-2" cx="458.66" cy="120.33" r="3.38"/><circle class="cls-2" cx="432.77" cy="119.86" r="3.38"/><circle class="cls-2" cx="458.66" cy="54.53" r="3.38"/><circle class="cls-2" cx="458.66" cy="87.91" r="3.38"/><circle class="cls-2" cx="432.77" cy="151.81" r="3.38"/><circle class="cls-2" cx="433.15" cy="54.53" r="3.38"/><circle class="cls-2" cx="433.15" cy="87.91" r="3.38"/><circle class="cls-2" cx="407.1" cy="152.81" r="3.38"/><circle class="cls-2" cx="479.65" cy="120.33" r="3.38"/><line class="cls-3" x1="403.72" y1="87.91" x2="386.49" y2="87.91"/><line class="cls-3" x1="432.77" y1="123.24" x2="432.77" y2="148.43"/><line class="cls-3" x1="403" y1="118.86" x2="386.49" y2="119.33"/><line class="cls-3" x1="455.28" y1="54.53" x2="436.53" y2="54.53"/><line class="cls-3" x1="363.49" y1="116.48" x2="379.72" y2="87.91"/><line class="cls-3" x1="389.87" y1="54.06" x2="403.72" y2="87.91"/><line class="cls-3" x1="458.66" y1="57.91" x2="458.66" y2="84.53"/><line class="cls-1" x1="383.11" y1="157.61" x2="407.1" y2="156.19"/><line class="cls-3" x1="363.49" y1="123.24" x2="383.11" y2="157.61"/><line class="cls-1" x1="432.77" y1="123.24" x2="458.66" y2="123.71"/><line class="cls-27" x1="432.77" y1="155.19" x2="458.66" y2="123.71"/><line class="cls-3" x1="433.15" y1="91.29" x2="432.77" y2="116.48"/><line class="cls-3" x1="407.1" y1="91.29" x2="403" y2="118.86"/><path class="cls-27" d="M363.49,116.48c0-34.5,8.77-62.42,19.62-62.42"/><path class="cls-27" d="M386.49,50.68c0-12,15.08-21.62,33.73-21.62"/><path class="cls-27" d="M458.66,51.15c0-12.21-17.19-22.09-38.44-22.09"/><line class="cls-3" x1="429.77" y1="54.53" x2="411.17" y2="54.53"/><line class="cls-27" x1="436.15" y1="119.86" x2="458.66" y2="123.71"/><line class="cls-3" x1="403.72" y1="87.91" x2="379.72" y2="119.33"/><line class="cls-3" x1="383.11" y1="91.29" x2="403" y2="118.86"/><line class="cls-3" x1="383.11" y1="115.95" x2="383.11" y2="91.29"/><line class="cls-3" x1="386.49" y1="50.68" x2="383.11" y2="84.53"/><path class="cls-27" d="M383.11,116v41.66"/><path class="cls-25" d="M83.79,9.59c16.82-5.95,72.63,54.14,61.54,112.82C138.63,157.86,108,190,92.76,185.23,79.24,181,78.61,148.19,77.38,84,76.46,36.22,76,12.35,83.79,9.59Z"/><ellipse class="cls-25" cx="77.18" cy="100.35" rx="76.18" ry="99.35"/><path class="cls-26" d="M57.49,186.7c-3.49,0-7.53-1.33-11.88-3.94-14.8-8.89-33.3-33-38.43-60.16-4.56-24.1,2.4-46.53,9-61.1,7.63-16.75,19.42-32.94,31.53-43.33C56.87,10.34,65,6.87,70,8.65c8.47,3,8,25.66,7.08,75.31-1.25,65.12-1.88,97.8-16.09,102.23A11.91,11.91,0,0,1,57.49,186.7ZM67.13,10.18c-4.44,0-11,3.39-18.09,9.51-11.9,10.2-23.49,26.15-31,42.64-6.51,14.3-13.35,36.31-8.89,59.9,5,26.59,23.07,50.15,37.5,58.82,5.4,3.24,10.17,4.36,13.78,3.23,12.84-4,13.49-38.22,14.69-100.35,0-1.9.24-11.94.48-32,.29-24.83.26-39-6.23-41.36A5.49,5.49,0,0,0,67.13,10.18Z"/><rect class="cls-28" x="1" y="1" width="152.36" height="199.71" rx="76.18" ry="76.18"/><line class="cls-28" x1="1" y1="167.42" x2="153.36" y2="167.42"/><line class="cls-28" x1="1" y1="134.14" x2="153.36" y2="134.14"/><line class="cls-28" x1="1" y1="100.85" x2="153.36" y2="100.85"/><line class="cls-28" x1="1" y1="67.57" x2="153.36" y2="67.57"/><line class="cls-28" x1="1" y1="34.28" x2="153.36" y2="34.28"/><line class="cls-28" x1="127.97" y1="1" x2="127.97" y2="200.71"/><line class="cls-28" x1="102.58" y1="1" x2="102.58" y2="200.71"/><line class="cls-28" x1="77.18" y1="1" x2="77.18" y2="200.71"/><line class="cls-28" x1="51.79" y1="1" x2="51.79" y2="200.71"/><line class="cls-28" x1="26.39" y1="1" x2="26.39" y2="200.71"/><circle class="cls-2" cx="41.66" cy="52.37" r="3.38"/><circle class="cls-2" cx="62.96" cy="52.84" r="3.38"/><circle class="cls-2" cx="62.27" cy="86.22" r="3.38"/><circle class="cls-2" cx="61.56" cy="117.17" r="3.38"/><circle class="cls-2" cx="18.66" cy="118.17" r="3.38"/><circle class="cls-2" cx="38.28" cy="152.54" r="3.38"/><circle class="cls-2" cx="38.28" cy="117.64" r="3.38"/><circle class="cls-2" cx="38.28" cy="86.22" r="3.38"/><circle class="cls-2" cx="113.83" cy="149.16" r="3.38"/><circle class="cls-2" cx="113.83" cy="118.64" r="3.38"/><circle class="cls-2" cx="87.95" cy="118.17" r="3.38"/><circle class="cls-2" cx="113.83" cy="52.84" r="3.38"/><circle class="cls-2" cx="113.83" cy="86.22" r="3.38"/><circle class="cls-2" cx="87.95" cy="150.12" r="3.38"/><circle class="cls-2" cx="88.33" cy="52.84" r="3.38"/><circle class="cls-2" cx="88.33" cy="86.22" r="3.38"/><circle class="cls-2" cx="62.27" cy="151.12" r="3.38"/><circle class="cls-2" cx="134.83" cy="118.64" r="3.38"/><line class="cls-3" x1="58.89" y1="86.22" x2="41.66" y2="86.22"/><line class="cls-3" x1="87.95" y1="121.55" x2="87.95" y2="146.74"/><line class="cls-3" x1="58.18" y1="117.17" x2="41.66" y2="117.64"/><line class="cls-3" x1="110.45" y1="52.84" x2="91.71" y2="52.84"/><line class="cls-3" x1="18.66" y1="114.79" x2="34.9" y2="86.22"/><line class="cls-3" x1="45.04" y1="52.37" x2="58.89" y2="86.22"/><line class="cls-3" x1="113.83" y1="56.22" x2="113.83" y2="82.84"/><line class="cls-1" x1="38.28" y1="155.92" x2="62.27" y2="154.5"/><line class="cls-3" x1="18.66" y1="121.55" x2="38.28" y2="155.92"/><line class="cls-1" x1="87.95" y1="121.55" x2="113.83" y2="122.02"/><line class="cls-3" x1="87.95" y1="153.5" x2="113.83" y2="122.02"/><line class="cls-3" x1="88.33" y1="89.6" x2="87.95" y2="114.79"/><line class="cls-3" x1="62.27" y1="89.6" x2="58.18" y2="117.17"/><path class="cls-3" d="M18.66,114.79c0-34.5,8.78-62.42,19.62-62.42"/><path class="cls-3" d="M41.66,49c0-12,15.09-21.62,33.73-21.62"/><path class="cls-3" d="M113.83,49.46c0-12.21-17.19-22.09-38.44-22.09"/><line class="cls-3" x1="84.95" y1="52.84" x2="66.34" y2="52.84"/><line class="cls-3" x1="110.45" y1="86.22" x2="88.33" y2="89.6"/><line class="cls-3" x1="84.57" y1="118.17" x2="113.83" y2="122.02"/><line class="cls-3" x1="131.44" y1="118.64" x2="113.83" y2="145.78"/><line class="cls-3" x1="38.28" y1="89.6" x2="58.18" y2="117.17"/><line class="cls-3" x1="34.9" y1="117.64" x2="38.28" y2="89.6"/><line class="cls-3" x1="34.9" y1="117.64" x2="18.66" y2="114.79"/><line class="cls-3" x1="38.28" y1="82.84" x2="41.66" y2="55.75"/><line class="cls-3" x1="62.27" y1="82.84" x2="66.34" y2="52.84"/><line class="cls-3" x1="84.95" y1="86.22" x2="62.27" y2="82.84"/><line class="cls-3" x1="59.58" y1="52.84" x2="41.66" y2="48.99"/><line class="cls-3" x1="113.83" y1="56.22" x2="84.95" y2="86.22"/><line class="cls-3" x1="110.45" y1="86.22" x2="84.95" y2="52.84"/><line class="cls-3" x1="62.27" y1="82.84" x2="84.95" y2="52.84"/><line class="cls-3" x1="88.33" y1="82.84" x2="84.95" y2="52.84"/><line class="cls-3" x1="110.45" y1="86.22" x2="113.83" y2="115.26"/><line class="cls-3" x1="87.95" y1="114.79" x2="110.45" y2="86.22"/><line class="cls-3" x1="131.44" y1="118.64" x2="110.45" y2="86.22"/><line class="cls-3" x1="110.45" y1="149.16" x2="87.95" y2="153.5"/><line class="cls-3" x1="41.66" y1="152.54" x2="62.27" y2="154.5"/><line class="cls-3" x1="58.18" y1="117.17" x2="62.27" y2="147.74"/><line class="cls-3" x1="38.28" y1="121.02" x2="41.66" y2="152.54"/><line class="cls-3" x1="64.94" y1="117.17" x2="87.95" y2="114.79"/><path class="cls-3" d="M134.83,115.26c0-32.63-9.39-59-21-59"/><path class="cls-3" d="M38.28,155.92c0,6.36,17.07,11.5,38.16,11.5"/><path class="cls-3" d="M113.83,152.54c0,8.22-16.72,14.88-37.39,14.88"/><line class="cls-3" x1="62.27" y1="154.5" x2="87.95" y2="121.55"/><line class="cls-3" x1="58.18" y1="117.17" x2="38.28" y2="155.92"/><line class="cls-3" x1="62.27" y1="89.6" x2="87.95" y2="121.55"/><line class="cls-3" x1="117.21" y1="118.64" x2="134.83" y2="115.26"/><line class="cls-6" x1="113.83" y1="152.54" x2="87.95" y2="121.55"/><line class="cls-6" x1="113.83" y1="122.02" x2="110.45" y2="149.16"/><line class="cls-6" x1="41.66" y1="86.22" x2="59.58" y2="52.84"/><line class="cls-6" x1="38.28" y1="121.02" x2="62.27" y2="154.5"/><path class="cls-25" d="M252.72,10.39c16.83-5.95,72.63,54.14,61.54,112.82C307.56,158.66,277,190.8,261.7,186c-13.52-4.22-14.15-37-15.39-101.28C245.4,37,244.94,13.14,252.72,10.39Z"/><ellipse class="cls-25" cx="246.11" cy="101.15" rx="76.18" ry="99.35"/><path class="cls-26" d="M226.42,187.5c-3.49,0-7.53-1.33-11.87-3.94-14.8-8.89-33.31-33-38.44-60.17-4.56-24.1,2.4-46.53,9-61.1,7.62-16.74,19.41-32.94,31.52-43.33C225.8,11.14,233.93,7.67,239,9.45c8.47,3,8,25.65,7.08,75.31C244.79,149.87,244.16,182.55,230,187A11.59,11.59,0,0,1,226.42,187.5ZM236.06,11c-4.43,0-11,3.39-18.08,9.5-11.91,10.21-23.5,26.15-31,42.64-6.52,14.31-13.35,36.32-8.9,59.9,5,26.6,23.08,50.16,37.51,58.82,5.4,3.24,10.16,4.36,13.78,3.24,12.83-4,13.49-38.23,14.68-100.35,0-1.9.25-11.94.48-32,.29-24.83.26-39-6.22-41.36A5.74,5.74,0,0,0,236.06,11Z"/><rect class="cls-6" x="169.93" y="1.8" width="152.36" height="199.71" rx="76.18" ry="76.18"/><line class="cls-6" x1="169.93" y1="168.22" x2="322.3" y2="168.22"/><line class="cls-6" x1="169.93" y1="134.93" x2="322.3" y2="134.93"/><line class="cls-6" x1="169.93" y1="101.65" x2="322.3" y2="101.65"/><line class="cls-6" x1="169.93" y1="68.36" x2="322.3" y2="68.36"/><line class="cls-6" x1="169.93" y1="35.08" x2="322.3" y2="35.08"/><line class="cls-6" x1="296.9" y1="1.8" x2="296.9" y2="201.5"/><line class="cls-6" x1="271.51" y1="1.8" x2="271.51" y2="201.5"/><line class="cls-6" x1="246.11" y1="1.8" x2="246.11" y2="201.5"/><line class="cls-6" x1="220.72" y1="1.8" x2="220.72" y2="201.5"/><line class="cls-6" x1="195.33" y1="1.8" x2="195.33" y2="201.5"/><circle class="cls-2" cx="210.59" cy="53.16" r="3.38"/><circle class="cls-2" cx="231.9" cy="53.63" r="3.38"/><circle class="cls-2" cx="231.21" cy="87.02" r="3.38"/><circle class="cls-2" cx="230.49" cy="117.97" r="3.38"/><circle class="cls-2" cx="187.6" cy="118.97" r="3.38"/><circle class="cls-2" cx="207.21" cy="153.33" r="3.38"/><circle class="cls-2" cx="207.21" cy="118.44" r="3.38"/><circle class="cls-2" cx="207.21" cy="87.02" r="3.38"/><circle class="cls-2" cx="282.76" cy="149.95" r="3.38"/><circle class="cls-2" cx="282.76" cy="119.44" r="3.38"/><circle class="cls-2" cx="256.88" cy="118.97" r="3.38"/><circle class="cls-2" cx="282.76" cy="53.63" r="3.38"/><circle class="cls-2" cx="282.76" cy="87.02" r="3.38"/><circle class="cls-2" cx="256.88" cy="150.92" r="3.38"/><circle class="cls-2" cx="257.26" cy="53.63" r="3.38"/><circle class="cls-2" cx="257.26" cy="87.02" r="3.38"/><circle class="cls-2" cx="231.21" cy="151.92" r="3.38"/><circle class="cls-2" cx="303.76" cy="119.44" r="3.38"/><line class="cls-3" x1="227.83" y1="87.02" x2="210.59" y2="87.02"/><line class="cls-3" x1="256.88" y1="122.35" x2="256.88" y2="147.54"/><line class="cls-3" x1="227.11" y1="117.97" x2="210.59" y2="118.44"/><line class="cls-3" x1="279.38" y1="53.63" x2="260.64" y2="53.63"/><line class="cls-3" x1="187.6" y1="115.59" x2="203.83" y2="87.02"/><line class="cls-3" x1="213.97" y1="53.16" x2="227.83" y2="87.02"/><line class="cls-3" x1="282.76" y1="57.01" x2="282.76" y2="83.64"/><line class="cls-1" x1="207.21" y1="156.71" x2="231.21" y2="155.3"/><line class="cls-3" x1="187.6" y1="122.35" x2="207.21" y2="156.71"/><line class="cls-1" x1="256.88" y1="122.35" x2="282.76" y2="122.82"/><line class="cls-27" x1="256.88" y1="154.3" x2="282.76" y2="122.82"/><line class="cls-3" x1="257.26" y1="90.4" x2="256.88" y2="115.59"/><line class="cls-3" x1="231.21" y1="90.4" x2="227.11" y2="117.97"/><path class="cls-27" d="M187.6,115.59c0-34.51,8.77-62.43,19.61-62.43"/><path class="cls-27" d="M210.59,49.78c0-12,15.09-21.62,33.74-21.62"/><path class="cls-27" d="M282.76,50.25c0-12.21-17.19-22.09-38.43-22.09"/><line class="cls-3" x1="253.88" y1="53.63" x2="235.28" y2="53.63"/><line class="cls-27" x1="260.26" y1="118.97" x2="282.76" y2="122.82"/><line class="cls-3" x1="227.83" y1="87.02" x2="203.83" y2="118.44"/><line class="cls-3" x1="207.21" y1="90.4" x2="227.11" y2="117.97"/><line class="cls-3" x1="207.21" y1="115.05" x2="207.21" y2="90.4"/><line class="cls-3" x1="210.59" y1="49.78" x2="207.21" y2="83.64"/><path class="cls-27" d="M207.21,115.05v41.66"/></g></g></svg>