<svg id="Layer_1" data-name="Layer 1" xmlns="http://www.w3.org/2000/svg" viewBox="0 0 695.28 264.76"><defs><style>.cls-1,.cls-20,.cls-3{fill:none;}.cls-1,.cls-18,.cls-19,.cls-20,.cls-22,.cls-3,.cls-4{stroke:#231f20;}.cls-1,.cls-18,.cls-19,.cls-20,.cls-22,.cls-3,.cls-4,.cls-5{stroke-miterlimit:10;}.cls-1,.cls-20{stroke-width:2px;}.cls-2,.cls-22,.cls-4,.cls-6{fill:#231f20;}.cls-18,.cls-5{fill:#ed1c24;}.cls-5{stroke:#ed1c24;}.cls-6{font-size:12px;font-family:MyriadPro-Regular, Myriad Pro;}.cls-7{letter-spacing:-0.01em;}.cls-8{letter-spacing:-0.01em;}.cls-9{letter-spacing:0.02em;}.cls-10{letter-spacing:-0.01em;}.cls-11{letter-spacing:0em;}.cls-12{letter-spacing:-0.01em;}.cls-13{letter-spacing:-0.07em;}.cls-14{letter-spacing:0em;}.cls-15{letter-spacing:0em;}.cls-16{letter-spacing:0em;}.cls-17{letter-spacing:0em;}.cls-19{fill:#be1e2d;}.cls-20,.cls-21,.cls-22{opacity:0.33;}</style></defs><title>individualized-parcellation</title><path class="cls-1" d="M104.28,14.16C121.1,8.21,176.91,68.3,165.82,127c-6.7,35.45-37.29,67.59-52.57,62.82-13.52-4.22-14.15-37-15.38-101.28C97,40.78,96.49,16.91,104.28,14.16Z"/><ellipse class="cls-1" cx="97.67" cy="104.92" rx="76.18" ry="99.35"/><path class="cls-2" d="M78,191.27c-3.5,0-7.53-1.33-11.88-3.94-14.8-8.89-33.3-33-38.44-60.17-4.55-24.1,2.4-46.53,9-61.1,7.63-16.74,19.41-32.94,31.53-43.33,9.13-7.82,17.26-11.29,22.29-9.51,8.46,3,8,25.65,7.07,75.31-1.25,65.11-1.87,97.79-16.08,102.22A11.59,11.59,0,0,1,78,191.27ZM87.62,14.75c-4.44,0-11,3.39-18.09,9.5C57.63,34.46,46,50.4,38.52,66.89,32,81.2,25.17,103.21,29.63,126.79c5,26.6,23.07,50.16,37.5,58.82,5.4,3.24,10.17,4.36,13.78,3.23,12.84-4,13.49-38.22,14.68-100.34,0-1.9.25-11.94.49-32,.29-24.83.26-39-6.23-41.36A5.69,5.69,0,0,0,87.62,14.75Z"/><path class="cls-1" d="M273.61,15.16C290.43,9.21,346.24,69.3,335.15,128c-6.7,35.45-37.28,67.59-52.56,62.82-13.52-4.22-14.16-37-15.39-101.28C266.28,41.78,265.83,17.91,273.61,15.16Z"/><ellipse class="cls-1" cx="267" cy="105.92" rx="76.18" ry="99.35"/><path class="cls-2" d="M247.31,192.27c-3.49,0-7.53-1.33-11.87-3.94-14.81-8.89-33.31-33-38.44-60.17-4.56-24.1,2.4-46.53,9-61.1,7.63-16.74,19.42-32.94,31.53-43.33,9.13-7.82,17.26-11.29,22.29-9.51,8.47,3,8,25.65,7.08,75.31-1.25,65.11-1.88,97.79-16.09,102.22A11.59,11.59,0,0,1,247.31,192.27ZM257,15.75c-4.43,0-11,3.39-18.09,9.5-11.9,10.21-23.49,26.15-31,42.64-6.51,14.31-13.35,36.32-8.89,59.9,5,26.6,23.08,50.16,37.5,58.82,5.4,3.24,10.17,4.36,13.79,3.23,12.83-4,13.49-38.22,14.68-100.34,0-1.9.24-11.94.48-32,.29-24.83.26-39-6.22-41.36A5.78,5.78,0,0,0,257,15.75Z"/><rect class="cls-3" x="190.82" y="6.57" width="152.36" height="198.71" rx="76.18" ry="76.18"/><line class="cls-3" x1="190.82" y1="172.15" x2="343.18" y2="172.15"/><line class="cls-3" x1="190.82" y1="139.04" x2="343.18" y2="139.04"/><line class="cls-3" x1="190.82" y1="105.92" x2="343.18" y2="105.92"/><line class="cls-3" x1="190.82" y1="72.8" x2="343.18" y2="72.8"/><line class="cls-3" x1="190.82" y1="39.68" x2="343.18" y2="39.68"/><line class="cls-3" x1="317.79" y1="6.57" x2="317.79" y2="205.27"/><line class="cls-3" x1="292.4" y1="6.57" x2="292.4" y2="205.27"/><line class="cls-3" x1="267" y1="6.57" x2="267" y2="205.27"/><line class="cls-3" x1="241.61" y1="6.57" x2="241.61" y2="205.27"/><line class="cls-3" x1="216.21" y1="6.57" x2="216.21" y2="205.27"/><rect class="cls-3" x="21.49" y="5.57" width="152.36" height="199.71" rx="76.18" ry="76.18"/><line class="cls-3" x1="21.49" y1="171.99" x2="173.85" y2="171.99"/><line class="cls-3" x1="21.49" y1="138.7" x2="173.85" y2="138.7"/><line class="cls-3" x1="21.49" y1="105.42" x2="173.85" y2="105.42"/><line class="cls-3" x1="21.49" y1="72.13" x2="173.85" y2="72.13"/><line class="cls-3" x1="21.49" y1="38.85" x2="173.85" y2="38.85"/><line class="cls-3" x1="148.46" y1="5.57" x2="148.46" y2="205.27"/><line class="cls-3" x1="123.06" y1="5.57" x2="123.06" y2="205.27"/><line class="cls-3" x1="97.67" y1="5.57" x2="97.67" y2="205.27"/><line class="cls-3" x1="72.28" y1="5.57" x2="72.28" y2="205.27"/><line class="cls-3" x1="46.88" y1="5.57" x2="46.88" y2="205.27"/><circle class="cls-4" cx="251.86" cy="25.4" r="3.38"/><circle class="cls-4" cx="224.62" cy="148.48" r="3.38"/><circle class="cls-4" cx="231.48" cy="124.59" r="3.38"/><circle class="cls-4" cx="231.48" cy="160.48" r="3.38"/><circle class="cls-4" cx="282.64" cy="25.4" r="3.38"/><circle class="cls-4" cx="275.88" cy="127.97" r="3.38"/><circle class="cls-4" cx="234.86" cy="84.03" r="3.38"/><circle class="cls-4" cx="224.62" cy="90.79" r="3.38"/><circle class="cls-4" cx="275.88" cy="84.03" r="3.38"/><circle class="cls-4" cx="228.14" cy="60.31" r="3.38"/><circle class="cls-4" cx="251.86" cy="87.41" r="3.38"/><circle class="cls-4" cx="309.49" cy="151.86" r="3.38"/><circle class="cls-4" cx="303.86" cy="124.59" r="3.38"/><circle class="cls-4" cx="279.26" cy="151.86" r="3.38"/><circle class="cls-4" cx="302.19" cy="63.69" r="3.38"/><circle class="cls-4" cx="279.26" cy="41.17" r="3.38"/><circle class="cls-4" cx="282.64" cy="56.93" r="3.38"/><circle class="cls-4" cx="205.1" cy="90.79" r="3.38"/><circle class="cls-4" cx="208.49" cy="119.36" r="3.38"/><circle class="cls-4" cx="303.86" cy="90.79" r="3.38"/><circle class="cls-4" cx="321.17" cy="115.98" r="3.38"/><circle class="cls-4" cx="251.86" cy="127.97" r="3.38"/><circle class="cls-4" cx="251.86" cy="56.4" r="3.38"/><circle class="cls-5" cx="62.15" cy="56.93" r="3.38"/><circle class="cls-5" cx="81.45" cy="57.4" r="3.38"/><circle class="cls-5" cx="82.76" cy="90.79" r="3.38"/><circle class="cls-5" cx="82.04" cy="122.74" r="3.38"/><circle class="cls-5" cx="39.15" cy="122.74" r="3.38"/><circle class="cls-5" cx="58.77" cy="157.1" r="3.38"/><circle class="cls-5" cx="58.77" cy="121.2" r="3.38"/><circle class="cls-5" cx="58.77" cy="90.79" r="3.38"/><circle class="cls-5" cx="134.32" cy="153.72" r="3.38"/><circle class="cls-5" cx="134.32" cy="123.2" r="3.38"/><circle class="cls-5" cx="108.43" cy="122.74" r="3.38"/><circle class="cls-5" cx="134.32" cy="57.4" r="3.38"/><circle class="cls-5" cx="134.32" cy="90.79" r="3.38"/><circle class="cls-5" cx="108.43" cy="154.69" r="3.38"/><circle class="cls-5" cx="108.81" cy="57.4" r="3.38"/><circle class="cls-5" cx="108.81" cy="90.79" r="3.38"/><circle class="cls-5" cx="82.76" cy="155.69" r="3.38"/><circle class="cls-5" cx="155.31" cy="123.2" r="3.38"/><circle class="cls-4" cx="248.47" cy="163.86" r="3.38"/><circle class="cls-4" cx="259.2" cy="148.48" r="3.38"/><circle class="cls-4" cx="301.65" cy="53.02" r="3.38"/><circle class="cls-4" cx="326.06" cy="94.17" r="3.38"/><circle class="cls-4" cx="297.15" cy="158.07" r="3.38"/><circle class="cls-4" cx="275.88" cy="96.51" r="3.38"/><circle class="cls-4" cx="326.06" cy="131.35" r="3.38"/><circle class="cls-4" cx="248.47" cy="114.98" r="3.38"/><circle class="cls-4" cx="275.88" cy="115.98" r="3.38"/><circle class="cls-4" cx="298.27" cy="111.59" r="3.38"/><circle class="cls-4" cx="248.47" cy="173.55" r="3.38"/><circle class="cls-4" cx="255.82" cy="46.85" r="3.38"/><circle class="cls-4" cx="235.16" cy="54.02" r="3.38"/><circle class="cls-4" cx="286.02" cy="176.93" r="3.38"/><circle class="cls-4" cx="298.27" cy="77.24" r="3.38"/><circle class="cls-4" cx="236.47" cy="138.04" r="3.38"/><circle class="cls-4" cx="233.09" cy="99.89" r="3.38"/><circle class="cls-4" cx="294.89" cy="139.04" r="3.38"/><circle class="cls-4" cx="217.21" cy="73.86" r="3.38"/><circle class="cls-4" cx="289.4" cy="97.55" r="3.38"/><circle class="cls-4" cx="321.17" cy="73.86" r="3.38"/><circle class="cls-4" cx="208.49" cy="139.04" r="3.38"/><text class="cls-6" transform="translate(67.93 253.2)"><tspan class="cls-7">g</tspan><tspan class="cls-8" x="6.64" y="0">r</tspan><tspan x="10.44" y="0">ou</tspan><tspan class="cls-9" x="23.64" y="0">p</tspan><tspan x="30.65" y="0">-le</tspan><tspan class="cls-10" x="43.18" y="0">v</tspan><tspan class="cls-11" x="48.83" y="0">el</tspan></text><text class="cls-6" transform="translate(231.49 256.64)">individuali<tspan class="cls-12" x="52.43" y="0">z</tspan><tspan x="57.48" y="0">ed</tspan><tspan class="cls-13" x="70.26" y="0">	</tspan></text><text class="cls-6" transform="translate(572.09 256.63)">ali<tspan class="cls-7" x="11.42" y="0">g</tspan><tspan x="18.06" y="0">nme</tspan><tspan class="cls-14" x="40.74" y="0">n</tspan><tspan x="47.35" y="0">t</tspan></text><text class="cls-6" transform="translate(342.67 256.63)">submodular <tspan class="cls-15" x="63.25" y="0">e</tspan><tspan x="69.23" y="0">xamplar clus</tspan><tspan class="cls-7" x="132.06" y="0">t</tspan><tspan class="cls-16" x="135.96" y="0">e</tspan><tspan class="cls-17" x="141.97" y="0">r</tspan><tspan x="145.94" y="0">ing</tspan></text><path class="cls-1" d="M438.23,14.65c16.82-6,72.63,54.14,61.54,112.83-6.7,35.44-37.29,67.58-52.57,62.82-13.52-4.22-14.15-37.05-15.38-101.29C430.9,41.28,430.44,17.41,438.23,14.65Z"/><ellipse class="cls-1" cx="431.62" cy="105.41" rx="76.18" ry="99.35"/><path class="cls-2" d="M411.93,191.76c-3.5,0-7.53-1.33-11.88-3.94-14.8-8.89-33.3-33-38.44-60.16-4.55-24.1,2.4-46.53,9-61.1,7.63-16.74,19.41-32.94,31.53-43.33,9.13-7.83,17.26-11.3,22.29-9.52,8.46,3,8,25.66,7.08,75.31-1.25,65.12-1.88,97.8-16.09,102.23A11.91,11.91,0,0,1,411.93,191.76Zm9.64-176.51c-4.44,0-11,3.39-18.09,9.5C391.58,35,380,50.9,372.47,67.39c-6.52,14.31-13.35,36.31-8.89,59.9,5,26.59,23.07,50.15,37.5,58.82,5.4,3.24,10.17,4.36,13.78,3.23,12.84-4,13.49-38.22,14.69-100.35,0-1.9.24-11.94.48-32,.29-24.83.26-39-6.23-41.36A5.51,5.51,0,0,0,421.57,15.25Z"/><rect class="cls-3" x="355.44" y="6.06" width="152.36" height="198.71" rx="76.18" ry="76.18"/><line class="cls-3" x1="355.44" y1="171.65" x2="507.8" y2="171.65"/><line class="cls-3" x1="355.44" y1="138.53" x2="507.8" y2="138.53"/><line class="cls-3" x1="355.44" y1="105.41" x2="507.8" y2="105.41"/><line class="cls-3" x1="355.44" y1="72.3" x2="507.8" y2="72.3"/><line class="cls-3" x1="355.44" y1="39.18" x2="507.8" y2="39.18"/><line class="cls-3" x1="482.41" y1="6.06" x2="482.41" y2="204.77"/><line class="cls-3" x1="457.01" y1="6.06" x2="457.01" y2="204.77"/><line class="cls-3" x1="431.62" y1="6.06" x2="431.62" y2="204.77"/><line class="cls-3" x1="406.23" y1="6.06" x2="406.23" y2="204.77"/><line class="cls-3" x1="380.83" y1="6.06" x2="380.83" y2="204.77"/><circle class="cls-18" cx="416.47" cy="24.9" r="3.38"/><circle class="cls-18" cx="389.23" cy="147.98" r="3.38"/><circle class="cls-18" cx="396.1" cy="124.08" r="3.38"/><circle class="cls-19" cx="447.26" cy="24.9" r="3.38"/><circle class="cls-18" cx="440.5" cy="127.46" r="3.38"/><circle class="cls-18" cx="389.23" cy="90.28" r="3.38"/><circle class="cls-18" cx="392.75" cy="59.81" r="3.38"/><circle class="cls-18" cx="416.47" cy="86.9" r="3.38"/><circle class="cls-18" cx="468.48" cy="124.08" r="3.38"/><circle class="cls-18" cx="443.88" cy="151.36" r="3.38"/><circle class="cls-18" cx="466.81" cy="63.19" r="3.38"/><circle class="cls-18" cx="447.26" cy="56.43" r="3.38"/><circle class="cls-18" cx="369.72" cy="90.28" r="3.38"/><circle class="cls-4" cx="373.1" cy="118.85" r="3.38"/><circle class="cls-4" cx="468.48" cy="90.28" r="3.38"/><circle class="cls-18" cx="416.47" cy="55.9" r="3.38"/><circle class="cls-18" cx="461.76" cy="157.56" r="3.38"/><circle class="cls-18" cx="440.5" cy="96.01" r="3.38"/><circle class="cls-18" cx="490.68" cy="130.84" r="3.38"/><circle class="cls-18" cx="413.09" cy="114.47" r="3.38"/><circle class="cls-18" cx="373.1" cy="119.23" r="3.38"/><circle class="cls-5" cx="468.27" cy="90.28" r="3.38"/><circle class="cls-5" cx="416.71" cy="155.18" r="3.38"/><path class="cls-20" d="M438.23,14.65c16.82-6,72.63,54.14,61.54,112.83-6.7,35.44-37.29,67.58-52.57,62.82-13.52-4.22-14.15-37.05-15.38-101.29C430.9,41.28,430.44,17.41,438.23,14.65Z"/><ellipse class="cls-20" cx="431.62" cy="105.41" rx="76.18" ry="99.35"/><g class="cls-21"><path class="cls-2" d="M411.93,191.76c-3.5,0-7.53-1.33-11.88-3.94-14.8-8.89-33.3-33-38.44-60.16-4.55-24.1,2.4-46.53,9-61.1,7.63-16.74,19.41-32.94,31.53-43.33,9.13-7.83,17.26-11.3,22.29-9.52,8.46,3,8,25.66,7.08,75.31-1.25,65.12-1.88,97.8-16.09,102.23A11.91,11.91,0,0,1,411.93,191.76Zm9.64-176.51c-4.44,0-11,3.39-18.09,9.5C391.58,35,380,50.9,372.47,67.39c-6.52,14.31-13.35,36.31-8.89,59.9,5,26.59,23.07,50.15,37.5,58.82,5.4,3.24,10.17,4.36,13.78,3.23,12.84-4,13.49-38.22,14.69-100.35,0-1.9.24-11.94.48-32,.29-24.83.26-39-6.23-41.36A5.51,5.51,0,0,0,421.57,15.25Z"/></g><circle class="cls-22" cx="416.47" cy="24.9" r="3.38"/><circle class="cls-22" cx="389.23" cy="147.98" r="3.38"/><circle class="cls-22" cx="396.1" cy="124.08" r="3.38"/><circle class="cls-22" cx="396.1" cy="159.98" r="3.38"/><circle class="cls-22" cx="447.26" cy="24.9" r="3.38"/><circle class="cls-22" cx="440.5" cy="127.46" r="3.38"/><circle class="cls-22" cx="399.48" cy="83.52" r="3.38"/><circle class="cls-22" cx="389.23" cy="90.28" r="3.38"/><circle class="cls-22" cx="440.5" cy="83.52" r="3.38"/><circle class="cls-22" cx="392.75" cy="59.81" r="3.38"/><circle class="cls-22" cx="416.47" cy="86.9" r="3.38"/><circle class="cls-22" cx="474.11" cy="151.36" r="3.38"/><circle class="cls-22" cx="468.48" cy="124.08" r="3.38"/><circle class="cls-22" cx="443.88" cy="151.36" r="3.38"/><circle class="cls-22" cx="466.81" cy="63.19" r="3.38"/><circle class="cls-22" cx="443.88" cy="40.66" r="3.38"/><circle class="cls-22" cx="447.26" cy="56.43" r="3.38"/><circle class="cls-22" cx="369.72" cy="90.28" r="3.38"/><circle class="cls-22" cx="468.48" cy="90.28" r="3.38"/><circle class="cls-22" cx="485.79" cy="115.47" r="3.38"/><circle class="cls-22" cx="416.47" cy="127.46" r="3.38"/><circle class="cls-22" cx="416.47" cy="55.9" r="3.38"/><circle class="cls-22" cx="413.09" cy="163.36" r="3.38"/><circle class="cls-22" cx="423.82" cy="147.98" r="3.38"/><circle class="cls-22" cx="466.27" cy="52.52" r="3.38"/><circle class="cls-22" cx="490.68" cy="93.66" r="3.38"/><circle class="cls-22" cx="461.76" cy="157.56" r="3.38"/><circle class="cls-22" cx="440.5" cy="96.01" r="3.38"/><circle class="cls-22" cx="490.68" cy="130.84" r="3.38"/><circle class="cls-22" cx="413.09" cy="114.47" r="3.38"/><circle class="cls-22" cx="440.5" cy="115.47" r="3.38"/><circle class="cls-22" cx="462.89" cy="111.09" r="3.38"/><circle class="cls-22" cx="413.09" cy="173.04" r="3.38"/><circle class="cls-22" cx="420.44" cy="46.34" r="3.38"/><circle class="cls-22" cx="399.78" cy="53.52" r="3.38"/><circle class="cls-22" cx="450.64" cy="176.42" r="3.38"/><circle class="cls-22" cx="462.89" cy="76.74" r="3.38"/><circle class="cls-22" cx="401.09" cy="137.53" r="3.38"/><circle class="cls-22" cx="397.71" cy="99.39" r="3.38"/><circle class="cls-22" cx="459.51" cy="138.53" r="3.38"/><circle class="cls-22" cx="381.83" cy="73.36" r="3.38"/><circle class="cls-22" cx="454.02" cy="97.04" r="3.38"/><circle class="cls-22" cx="485.79" cy="73.36" r="3.38"/><circle class="cls-22" cx="373.1" cy="138.53" r="3.38"/><circle class="cls-22" cx="416.71" cy="155.18" r="3.38"/><circle class="cls-22" cx="373.1" cy="119.23" r="3.38"/><path class="cls-1" d="M602.85,15.16C619.67,9.21,675.48,69.3,664.38,128c-6.7,35.45-37.28,67.59-52.56,62.82-13.52-4.22-14.15-37-15.39-101.28C595.52,41.78,595.06,17.91,602.85,15.16Z"/><ellipse class="cls-1" cx="596.24" cy="105.92" rx="76.18" ry="99.35"/><path class="cls-2" d="M576.55,192.27c-3.5,0-7.53-1.33-11.88-3.94-14.8-8.89-33.3-33-38.44-60.17-4.55-24.1,2.4-46.53,9-61.1,7.63-16.74,19.41-32.94,31.53-43.33,9.13-7.82,17.25-11.29,22.29-9.51,8.46,3,8,25.65,7.07,75.31-1.25,65.11-1.88,97.79-16.08,102.22A11.69,11.69,0,0,1,576.55,192.27Zm9.63-176.52c-4.43,0-10.95,3.39-18.08,9.5-11.91,10.21-23.5,26.15-31,42.64-6.52,14.31-13.35,36.32-8.89,59.9,5,26.6,23.07,50.16,37.5,58.82,5.4,3.24,10.16,4.36,13.78,3.23,12.83-4,13.49-38.22,14.68-100.34,0-1.9.25-11.94.48-32,.29-24.83.27-39-6.22-41.36A5.74,5.74,0,0,0,586.18,15.75Z"/><rect class="cls-3" x="520.06" y="6.57" width="152.36" height="198.71" rx="76.18" ry="76.18"/><line class="cls-3" x1="520.06" y1="172.15" x2="672.42" y2="172.15"/><line class="cls-3" x1="520.06" y1="139.04" x2="672.42" y2="139.04"/><line class="cls-3" x1="520.06" y1="105.92" x2="672.42" y2="105.92"/><line class="cls-3" x1="520.06" y1="72.8" x2="672.42" y2="72.8"/><line class="cls-3" x1="520.06" y1="39.68" x2="672.42" y2="39.68"/><line class="cls-3" x1="647.02" y1="6.57" x2="647.02" y2="205.27"/><line class="cls-3" x1="621.63" y1="6.57" x2="621.63" y2="205.27"/><line class="cls-3" x1="596.24" y1="6.57" x2="596.24" y2="205.27"/><line class="cls-3" x1="570.84" y1="6.57" x2="570.84" y2="205.27"/><line class="cls-3" x1="545.45" y1="6.57" x2="545.45" y2="205.27"/><circle class="cls-18" cx="553.85" cy="148.48" r="3.38"/><circle class="cls-18" cx="560.71" cy="124.59" r="3.38"/><circle class="cls-18" cx="605.11" cy="127.97" r="3.38"/><circle class="cls-18" cx="553.85" cy="90.79" r="3.38"/><circle class="cls-18" cx="557.37" cy="60.31" r="3.38"/><circle class="cls-18" cx="581.09" cy="87.41" r="3.38"/><circle class="cls-18" cx="633.09" cy="124.59" r="3.38"/><circle class="cls-18" cx="608.49" cy="151.86" r="3.38"/><circle class="cls-18" cx="631.42" cy="63.69" r="3.38"/><circle class="cls-18" cx="611.87" cy="56.93" r="3.38"/><circle class="cls-4" cx="537.72" cy="119.36" r="3.38"/><circle class="cls-4" cx="633.09" cy="90.79" r="3.38"/><circle class="cls-18" cx="581.09" cy="56.4" r="3.38"/><circle class="cls-18" cx="626.38" cy="158.07" r="3.38"/><circle class="cls-18" cx="605.11" cy="96.51" r="3.38"/><circle class="cls-18" cx="655.29" cy="131.35" r="3.38"/><circle class="cls-18" cx="577.71" cy="114.98" r="3.38"/><circle class="cls-18" cx="537.72" cy="119.74" r="3.38"/><circle class="cls-5" cx="632.89" cy="90.79" r="3.38"/><circle class="cls-5" cx="581.33" cy="155.69" r="3.38"/><path class="cls-20" d="M602.85,15.16C619.67,9.21,675.48,69.3,664.38,128c-6.7,35.45-37.28,67.59-52.56,62.82-13.52-4.22-14.15-37-15.39-101.28C595.52,41.78,595.06,17.91,602.85,15.16Z"/><ellipse class="cls-20" cx="596.24" cy="105.92" rx="76.18" ry="99.35"/><g class="cls-21"><path class="cls-2" d="M576.55,192.27c-3.5,0-7.53-1.33-11.88-3.94-14.8-8.89-33.3-33-38.44-60.17-4.55-24.1,2.4-46.53,9-61.1,7.63-16.74,19.41-32.94,31.53-43.33,9.13-7.82,17.25-11.29,22.29-9.51,8.46,3,8,25.65,7.07,75.31-1.25,65.11-1.88,97.79-16.08,102.22A11.69,11.69,0,0,1,576.55,192.27Zm9.63-176.52c-4.43,0-10.95,3.39-18.08,9.5-11.91,10.21-23.5,26.15-31,42.64-6.52,14.31-13.35,36.32-8.89,59.9,5,26.6,23.07,50.16,37.5,58.82,5.4,3.24,10.16,4.36,13.78,3.23,12.83-4,13.49-38.22,14.68-100.34,0-1.9.25-11.94.48-32,.29-24.83.27-39-6.22-41.36A5.74,5.74,0,0,0,586.18,15.75Z"/></g><circle class="cls-22" cx="553.85" cy="148.48" r="3.38"/><circle class="cls-22" cx="560.71" cy="124.59" r="3.38"/><circle class="cls-22" cx="605.11" cy="127.97" r="3.38"/><circle class="cls-22" cx="553.85" cy="90.79" r="3.38"/><circle class="cls-22" cx="557.37" cy="60.31" r="3.38"/><circle class="cls-22" cx="581.09" cy="87.41" r="3.38"/><circle class="cls-22" cx="633.09" cy="124.59" r="3.38"/><circle class="cls-22" cx="608.49" cy="151.86" r="3.38"/><circle class="cls-22" cx="631.42" cy="63.69" r="3.38"/><circle class="cls-22" cx="611.87" cy="56.93" r="3.38"/><circle class="cls-22" cx="633.09" cy="90.79" r="3.38"/><circle class="cls-22" cx="581.09" cy="56.4" r="3.38"/><circle class="cls-22" cx="626.38" cy="158.07" r="3.38"/><circle class="cls-22" cx="605.11" cy="96.51" r="3.38"/><circle class="cls-22" cx="655.29" cy="131.35" r="3.38"/><circle class="cls-22" cx="577.71" cy="114.98" r="3.38"/><circle class="cls-22" cx="581.33" cy="155.69" r="3.38"/><circle class="cls-22" cx="537.72" cy="119.74" r="3.38"/><circle class="cls-5" cx="560.21" cy="58.43" r="3.38"/><circle class="cls-5" cx="579.52" cy="58.9" r="3.38"/><circle class="cls-5" cx="580.83" cy="92.29" r="3.38"/><circle class="cls-5" cx="580.11" cy="124.24" r="3.38"/><circle class="cls-5" cx="537.22" cy="124.24" r="3.38"/><circle class="cls-5" cx="556.83" cy="158.6" r="3.38"/><circle class="cls-5" cx="556.83" cy="122.7" r="3.38"/><circle class="cls-5" cx="556.83" cy="92.29" r="3.38"/><circle class="cls-5" cx="632.38" cy="155.22" r="3.38"/><circle class="cls-5" cx="632.38" cy="124.7" r="3.38"/><circle class="cls-5" cx="606.5" cy="124.24" r="3.38"/><circle class="cls-5" cx="632.38" cy="58.9" r="3.38"/><circle class="cls-5" cx="632.38" cy="92.29" r="3.38"/><circle class="cls-5" cx="606.5" cy="156.19" r="3.38"/><circle class="cls-5" cx="606.88" cy="58.9" r="3.38"/><circle class="cls-5" cx="606.88" cy="92.29" r="3.38"/><circle class="cls-5" cx="580.83" cy="157.19" r="3.38"/><circle class="cls-5" cx="653.38" cy="124.7" r="3.38"/></svg>